<svg width="472" height="606" viewBox="0 0 472 606" fill="none" xmlns="http://www.w3.org/2000/svg">
<g clip-path="url(#clip0)">
<path d="M128.768 35.1341V34.9156H133.95V35.1348L128.768 35.1341Z" fill="#FEFCFB"/>
<path d="M66.5899 111.316C66.6761 112.027 66.1708 112.331 65.7996 112.695C65.7179 112.775 65.4044 112.634 65.2441 112.515C64.0253 111.594 62.6677 110.934 61.2387 110.569C58.5927 109.837 55.8046 110.177 53.3557 111.528C52.9165 111.772 52.4594 112.207 52.1286 111.361C52.0949 111.275 51.9568 111.153 51.9101 111.174C51.1364 111.514 50.9783 110.747 50.615 110.298C48.7579 107.936 46.2432 106.368 43.4901 105.853C41.4834 105.439 39.4163 105.62 37.4897 106.38C35.9141 106.961 34.4726 107.933 33.2703 109.225C31.4353 111.295 29.9087 113.639 29.7375 116.756C29.6841 117.725 29.607 118.691 29.5524 119.66C29.4819 120.917 29.3696 122.176 29.3733 123.433C29.3772 124.909 29.4862 126.384 29.5499 127.86C29.4883 127.741 29.3763 127.625 29.3724 127.504C29.2971 125.196 29.0931 122.878 29.2076 120.58C29.3335 118.052 29.4003 115.491 30.2811 113.067C30.8938 111.279 31.827 109.656 33.0218 108.298C34.2165 106.941 35.6467 105.88 37.2217 105.182C38.5659 104.531 40.0142 104.202 41.4757 104.216C43.6913 104.279 45.8629 104.754 47.8109 106.176C49.3395 107.221 50.6487 108.631 51.6469 110.309C51.9034 110.763 52.1599 110.842 52.5817 110.563C53.677 109.825 54.8817 109.319 56.1367 109.071C59.14 108.493 61.9878 108.906 64.6277 110.715C64.9918 110.936 65.3375 111.195 65.6606 111.487C66.0697 111.9 66.3304 111.72 66.5896 111.316H66.5899Z" fill="#FEE8D9"/>
<path d="M36.0763 174.872C36.3144 175.819 36.5003 176.782 36.6329 177.755C36.7899 179.865 37.3877 181.903 38.3769 183.699C39.535 185.734 41.1237 187.409 42.9984 188.57C44.0802 189.247 45.2628 189.692 46.487 189.883C47.4164 190.07 48.3544 190.198 49.2966 190.265C49.9551 190.234 50.6102 190.142 51.2554 189.99C51.5052 189.952 51.7562 189.924 52.0066 189.892C51.5052 190.067 51.012 190.286 50.5006 190.412C47.6676 191.105 44.9995 190.575 42.4442 189.049C39.2795 187.16 37.3465 184.189 36.3935 180.347C36.2176 179.586 36.1153 178.805 36.0884 178.018C36.0374 176.973 36.0763 175.921 36.0763 174.872Z" fill="#FEE8DA"/>
<path d="M146.043 44.7094C145.743 44.2664 145.437 43.8285 145.145 43.3793C144.162 41.8647 143.181 40.3479 142.203 38.8292C142.82 39.424 143.546 39.9239 144.03 40.6354C144.726 41.7419 145.365 42.8936 145.942 44.0846C146.008 44.2848 146.042 44.4961 146.043 44.7094ZM111.111 53.4152C110.876 53.948 110.623 54.472 110.409 55.0159C109.992 56.073 109.595 57.1412 109.191 58.2049C109.369 56.4184 110.042 54.7418 111.111 53.4148V53.4152Z" fill="#FEE9DB"/>
<path d="M113.991 49.9332C113.873 50.2166 113.728 50.4848 113.56 50.7332C112.931 51.4861 112.276 52.2117 111.623 52.9398C111.467 53.1146 111.282 53.2578 111.11 53.4159C111.646 52.6296 112.147 51.8079 112.731 51.0706C113.121 50.6506 113.542 50.2701 113.99 49.9332H113.991Z" fill="#FEE9DB"/>
<path d="M116.261 135.75L101.714 152.175L124.577 174.269L139.184 157.615L116.261 135.75Z" fill="#F6F6F6"/>
<path d="M124.577 174.269L138.127 187.364L152.387 170.208L139.184 157.615L124.577 174.269Z" fill="#E7E7E7"/>
<path d="M97.3397 170.543L117.795 190.31L125.805 180.673L122.078 177.118L117.519 182.316L122.078 177.118L105.511 161.316L97.3397 170.543Z" fill="#F6F6F6"/>
<path d="M39.4932 138.952C39.5645 138.885 39.671 138.835 39.702 138.75C40.6711 136.074 41.649 133.401 42.5902 130.711C43.1541 129.099 44.2194 128.597 45.6541 129.114C46.2738 129.339 46.9445 129.299 47.5404 129.003C49.7014 127.675 51.8041 126.22 53.8938 124.749C54.3348 124.439 54.6234 123.856 54.9955 123.413C58.6115 119.102 62.9116 115.873 67.5896 113.264C69.2189 112.356 70.751 112.583 72.1368 114.365C73.3096 112.898 74.5333 111.572 75.5431 110.062C77.7876 106.705 67.1171 94.6096 69.9349 91.9321C70.3021 91.5831 84.1163 100.614 84.486 100.268C85.5374 99.2871 86.6676 98.9982 87.9575 99.6812C88.2249 99.8227 88.604 99.726 88.9263 99.686C89.0726 99.6681 89.2047 99.5174 89.3467 99.4347C90.8497 98.5562 81.7863 91.896 82.5894 89.9665C84.0232 86.5211 89.8002 85.8378 91.6158 82.5978C91.9584 81.9868 98.764 84.5531 99.1264 83.9565C100.345 81.9496 100.853 81.7499 102.897 82.4938C105.368 78.647 104.278 71.6676 107.328 68.418C110.903 64.609 118.459 64.3436 122.125 60.6538C124.313 58.4513 126.824 56.6565 129.221 54.7284C130.321 53.8444 131.347 54.0365 132.349 55.0327C132.485 55.1352 132.642 55.1977 132.805 55.2146C132.967 55.2314 133.131 55.202 133.282 55.1291C134.309 54.2744 135.389 53.4434 136.24 52.3866C137.832 50.4107 140.639 50.5855 141.266 53.8152C142.139 53.9701 143.065 53.8988 143.76 54.3195C144.598 54.8258 145.223 55.7711 145.973 56.4833C146.253 56.7762 146.595 56.9835 146.965 57.0857C147.49 57.1693 147.972 57.4599 148.326 57.9063C148.681 58.3528 148.885 58.9266 148.903 59.5271C149.007 61.1808 148.478 62.2689 147.228 63.2359C145.988 64.2486 144.885 65.4604 143.953 66.8331C143.038 68.1216 142.008 69.0266 140.585 69.2876C137.799 69.7984 136.057 71.6452 134.986 74.5451C134.637 75.3425 134.102 76.0167 133.44 76.4948C132.689 77.0478 131.866 77.4649 131.002 77.7313C129.89 78.0869 128.897 78.8152 128.156 79.8208C127.866 80.1894 127.663 80.6353 127.566 81.1169C127.152 83.8033 125.743 85.4229 123.499 86.2102C123.041 86.3706 122.603 86.6106 122.14 86.7376C119.808 87.3772 118.722 89.3655 118.3 91.7479C117.503 96.2426 115.14 99.6454 112.469 102.769C109.54 106.194 105.787 108.172 101.79 109.517C99.6196 110.248 97.3982 110.785 95.2293 111.522C93.175 112.163 91.3783 113.588 90.1422 115.556C89.5003 116.594 88.8875 117.655 88.2841 118.722C86.9235 121.129 84.8529 122.421 82.6091 123.484C80.0605 124.692 77.3954 125.376 74.6927 125.923C69.9943 126.875 66.9996 130.246 65.5522 135.124C63.773 141.121 59.9427 143.494 54.8337 144.442C52.1477 144.94 49.5193 145.92 46.9167 146.865C46.252 147.107 45.7209 147.99 45.2474 148.683C44.9336 149.143 44.777 149.388 44.2883 148.965C44.0211 148.805 43.7192 148.735 43.4181 148.763C42.0812 148.726 41.2037 147.545 41.472 146.073C41.7407 144.6 41.7622 143.266 40.55 142.201C40.0844 141.792 39.8389 141.06 39.4932 140.475V138.952V138.952Z" stroke="white" stroke-width="3" stroke-miterlimit="10"/>
<path d="M38.0045 129.899C37.7774 129.973 37.5996 130.013 37.4327 130.087C36.2732 130.597 35.3308 130.383 34.6513 129.449C34.0892 128.675 34.0373 127.284 34.5724 126.27C35.1946 125.09 35.8474 123.93 36.4893 122.763C36.8004 122.198 36.7261 121.841 36.1798 121.457C34.9545 120.598 34.5863 119.346 35.0871 117.803C35.1902 117.546 35.2312 117.263 35.2059 116.983C35.1805 116.702 35.0898 116.434 34.943 116.206C34.6907 115.759 34.5606 115.238 34.5689 114.707C34.5773 114.176 34.7236 113.66 34.9897 113.224C35.2232 112.835 35.4821 112.466 35.7643 112.121C37.2909 110.061 37.1352 108.743 35.1776 107.192C33.9113 106.189 33.5553 104.495 34.3863 102.87C34.7615 102.136 34.8404 101.697 34.2473 101.029C33.3532 100.022 33.3811 98.7792 33.9174 97.5065C33.9807 97.3484 34.0113 97.176 34.0071 97.0024C34.0028 96.8288 33.9637 96.6587 33.8928 96.5048C32.6326 94.8521 32.5383 93.9292 33.5335 92.0414C33.6013 91.8903 33.662 91.7352 33.7153 91.5767C32.4882 90.987 31.7133 90.0283 31.5543 88.4999C31.5315 88.2796 31.1922 88.039 30.9552 87.9192C28.9833 86.9216 28.6348 84.7133 30.0595 82.8496C31.2905 81.2389 32.4074 79.5133 33.5316 77.8021C34.078 76.9697 33.7511 75.2385 33.0105 74.6248C31.4556 73.3373 31.2781 71.7783 32.4861 70.0533C32.897 69.4667 33.3004 68.8733 33.7071 68.2826L33.5499 68.0623C33.2728 68.253 32.9993 68.4512 32.7182 68.633C31.388 69.495 30.0619 69.2612 29.1899 68.0158C28.416 66.9097 28.5444 65.4006 29.5775 64.1879C29.9217 63.8154 30.1974 63.3693 30.3889 62.8754C30.5804 62.3815 30.6838 61.8495 30.6932 61.3101C30.7175 60.4997 31.1008 59.6291 31.5075 58.9211C32.8439 56.6538 34.5317 54.6803 36.489 53.0962C36.8187 52.8087 37.1885 52.586 37.5832 52.4374C38.8761 51.996 39.8516 52.7492 40.0644 54.2949C40.0929 54.5014 40.1275 54.7066 40.1852 55.0814C40.6908 54.7124 41.1255 54.436 41.5212 54.1004C43.5374 52.3909 45.4978 50.5902 47.5702 48.974C48.8197 47.9998 50.2326 47.2917 51.582 46.4852C53.8127 45.1509 56.0308 43.7836 58.2995 42.5368C59.1076 42.1013 59.979 41.8368 60.8709 41.7564C63.0237 41.5636 64.4389 43.5929 63.6595 45.8714C63.1824 47.1288 62.5233 48.287 61.7095 49.2979C60.6071 50.7513 59.3409 52.0442 58.1487 53.4105C57.9089 53.6856 57.6874 53.9816 57.4576 54.2677L57.6033 54.5066C57.9071 54.3152 58.2212 54.1417 58.5138 53.9296C60.5048 52.4835 62.4051 50.8377 64.5008 49.6249C67.1921 48.068 70.0156 46.7898 72.8282 45.523C74.3813 44.8235 75.3504 45.5068 76.4096 47.764C76.7939 47.5816 77.1927 47.3991 77.5863 47.2029C78.2003 46.8969 78.7943 46.5289 79.4256 46.281C81.2203 45.5754 82.2865 46.4129 82.8562 49.0542C83.2346 48.8707 83.5992 48.7089 83.9524 48.5206C86.321 47.2566 88.6829 45.9771 91.0579 44.7299C91.4609 44.5112 91.894 44.3729 92.3384 44.321C93.564 44.2053 94.7987 44.206 96.0236 44.0814C97.5633 43.9244 98.4265 44.7809 98.8195 46.4834C99.568 46.2156 100.222 45.9427 100.894 45.7519C101.752 45.4794 102.626 45.275 103.509 45.1402C104.022 45.0379 104.551 45.1585 104.99 45.478C105.429 45.7975 105.746 46.2926 105.878 46.8649C106.06 47.4934 106.352 47.5223 106.817 47.3688C107.89 47.0156 108.962 46.6487 110.05 46.3643C111.711 45.9299 112.524 46.3444 113.431 47.9685C113.514 48.1229 113.608 48.2687 113.714 48.4043C114.828 49.7826 114.828 49.7812 114.972 51.5919C115.282 51.437 115.549 51.3031 115.816 51.1702C116.787 50.6271 117.784 50.1457 118.802 49.7282C119.382 49.5453 119.998 49.5744 120.563 49.8115C120.85 49.9579 121.167 50.0154 121.481 49.9784C121.794 49.9413 122.094 49.811 122.349 49.6005C122.802 49.2599 123.284 48.9717 123.787 48.7403C124.926 48.2456 125.885 48.5454 126.547 49.7083C126.932 50.383 127.271 50.3695 127.791 50.0129C129.599 48.7712 131.572 48.2063 133.675 47.9853C134.525 47.8958 135.309 47.1461 136.167 46.9606C136.897 46.8029 137.839 46.7389 138.427 47.1327C140.071 48.2346 139.843 50.6673 138.069 51.6491C137.418 52.0095 136.668 52.1344 135.98 52.4191C134.101 53.1971 132.017 53.6504 130.692 55.5021C129.924 56.6468 129.335 57.9328 128.951 59.3038C128.58 60.5259 128.055 61.5035 127.039 61.9968C125.282 62.8498 123.508 63.6794 121.693 64.3466C120.046 64.9517 118.882 66.0195 118.306 67.8695C117.64 70.0113 116.223 71.17 114.392 71.8361C112.874 72.3853 111.364 72.9639 109.864 73.5714C108.731 74.0327 108.068 75.0313 107.67 76.2799C107.584 76.5518 107.52 76.8334 107.457 77.1139C106.571 81.0651 104.35 83.3849 100.839 84.2183C97.4853 85.0145 95.5951 87.5447 94.6129 91.1364C94.1786 92.7251 93.666 94.2882 93.1388 95.8411C91.8743 99.5633 89.3173 101.075 85.9505 101.162C85.8866 101.168 85.8224 101.168 85.7586 101.162C82.2704 100.525 80.2867 102.744 78.6911 105.841C77.7217 107.753 76.6528 109.598 75.49 111.366C74.3851 112.992 72.8051 114.118 71.0339 114.541C68.5827 115.196 66.0776 115.712 63.7232 116.684C60.6284 117.961 58.3056 120.413 56.724 123.757C55.5133 126.317 53.5265 127.695 51.025 128.215C47.8852 128.867 44.817 129.729 42.6251 132.685C42.2967 133.128 41.846 133.529 41.6839 134.043C41.2511 135.415 40.2538 135.684 39.2146 135.747C38.7487 135.775 38.0503 135.508 37.8412 135.114C37.7268 134.837 37.6684 134.535 37.6702 134.229C37.672 133.923 37.7339 133.621 37.8515 133.346C38.0063 133.085 38.1034 132.785 38.1347 132.472C38.1659 132.159 38.1304 131.842 38.0312 131.548C37.8931 131.073 38.0045 130.505 38.0045 129.899Z" fill="#0066F5"/>
<path d="M37.9298 129.793C37.7028 129.866 37.5246 129.906 37.3577 129.979C36.1971 130.486 35.2553 130.27 34.5776 129.334C34.017 128.56 33.9675 127.168 34.5041 126.155C35.129 124.977 35.7837 123.818 36.4278 122.653C36.7398 122.089 36.666 121.731 36.1206 121.347C34.8968 120.484 34.5311 119.231 35.034 117.69C35.1377 117.433 35.1793 117.15 35.1546 116.869C35.1298 116.589 35.0396 116.32 34.8932 116.092C34.6419 115.645 34.5127 115.123 34.522 114.592C34.5313 114.062 34.6786 113.546 34.9454 113.11C35.1796 112.721 35.4391 112.353 35.7218 112.009C37.2524 109.953 37.0988 108.634 35.1442 107.079C33.8798 106.073 33.5271 104.377 34.3612 102.755C34.7375 102.023 34.817 101.582 34.2252 100.913C33.3329 99.9046 33.3632 98.6619 33.9016 97.3907C33.9653 97.2326 33.9963 97.0602 33.9924 96.8865C33.9884 96.7128 33.9496 96.5424 33.8789 96.3883C32.6214 94.7332 32.5289 93.8099 33.5277 91.9245C33.5958 91.7734 33.6566 91.6183 33.7101 91.4598C32.4839 90.8677 31.7112 89.9073 31.5552 88.3782C31.5324 88.1579 31.1934 87.9169 30.957 87.7965C28.9866 86.7937 28.6421 84.5847 30.0704 82.7245C31.3042 81.1169 32.4245 79.3937 33.5517 77.6849C34.0995 76.8539 33.7757 75.122 33.0363 74.5069C31.4839 73.216 31.3094 71.6562 32.5204 69.934C32.9322 69.3485 33.3365 68.7557 33.7441 68.166L33.5875 67.9454C33.3101 68.1354 33.0363 68.3327 32.7547 68.5144C31.4229 69.3729 30.0975 69.1361 29.2279 67.8886C28.4558 66.7808 28.5872 65.272 29.6222 64.0617C29.967 63.6901 30.2436 63.2447 30.436 62.7512C30.6284 62.2578 30.7329 61.7261 30.7433 61.1866C30.7691 60.3763 31.154 59.5068 31.5619 58.7994C32.9024 56.5353 34.5938 54.5657 36.554 52.9862C36.8841 52.6995 37.2542 52.4776 37.6491 52.3298C38.9429 51.8916 39.9172 52.6472 40.1272 54.1935C40.1552 54.4 40.1894 54.6052 40.2465 54.9801C40.7528 54.6124 41.188 54.337 41.5841 54.0024C43.6033 52.2971 45.567 50.5015 47.6424 48.8902C48.8938 47.9184 50.3081 47.2137 51.6588 46.4103C53.8926 45.0815 56.1125 43.7194 58.3836 42.4777C59.1924 42.0441 60.0642 41.7817 60.9562 41.7032C63.1096 41.5153 64.5209 43.5483 63.7375 45.8248C63.2582 47.0811 62.597 48.2377 61.7814 49.2468C60.6763 50.6974 59.4077 51.9876 58.2131 53.3511C57.9724 53.6255 57.7508 53.9212 57.5204 54.2069L57.6655 54.4458C57.9696 54.2554 58.2844 54.0826 58.577 53.8709C60.5707 52.4296 62.474 50.788 64.5719 49.5804C67.2661 48.0296 70.0921 46.7583 72.9069 45.4977C74.4608 44.8024 75.429 45.4874 76.484 47.7473C76.8686 47.5656 77.268 47.3841 77.6616 47.189C78.2762 46.8843 78.8711 46.5177 79.503 46.2712C81.2989 45.57 82.3633 46.41 82.9284 49.0527C83.3072 48.8702 83.672 48.7091 84.0256 48.5212C86.3963 47.2633 88.7604 45.9893 91.1381 44.7476C91.5413 44.5299 91.9746 44.3925 92.4189 44.3414C93.6451 44.2285 94.8797 44.2323 96.1047 44.1105C97.6447 43.9573 98.5064 44.8155 98.8964 46.5191C99.6454 46.253 100.299 45.9814 100.972 45.7924C101.83 45.5219 102.705 45.3196 103.588 45.1869C104.102 45.0859 104.631 45.2077 105.069 45.5283C105.507 45.8489 105.823 46.3447 105.954 46.9174C106.135 47.5459 106.426 47.5755 106.893 47.4234C107.966 47.0723 109.038 46.7081 110.127 46.4261C111.788 45.9958 112.601 46.4124 113.505 48.0382C113.587 48.1928 113.682 48.3389 113.787 48.4747C114.898 49.8558 114.899 49.8544 115.04 51.6658C115.349 51.5115 115.617 51.378 115.884 51.2454C116.856 50.7047 117.854 50.2257 118.873 49.8107C119.453 49.6291 120.069 49.6597 120.633 49.8981C120.921 50.0451 121.237 50.1034 121.551 50.0671C121.865 50.0307 122.165 49.9011 122.42 49.6912C122.873 49.3516 123.356 49.0645 123.86 48.8341C124.999 48.3425 125.957 48.6447 126.618 49.8086C127.002 50.4843 127.341 50.4716 127.861 50.1164C129.672 48.8788 131.645 48.3184 133.749 48.1026C134.599 48.0151 135.384 47.2668 136.243 47.0836C136.973 46.9273 137.915 46.8657 138.502 47.2613C140.145 48.3669 139.913 50.799 138.137 51.7763C137.484 52.1353 136.735 52.2582 136.046 52.5418C134.165 53.3153 132.081 53.7639 130.753 55.6124C129.983 56.7553 129.391 58.0397 129.005 59.4097C128.632 60.6307 128.105 61.607 127.088 62.0982C125.329 62.9474 123.554 63.7726 121.737 64.4356C120.09 65.0369 118.923 66.1017 118.344 67.9505C117.674 70.091 116.255 71.2463 114.422 71.9079C112.904 72.4537 111.393 73.0287 109.892 73.6329C108.758 74.091 108.093 75.0886 107.693 76.3361C107.606 76.6077 107.542 76.8893 107.478 77.1695C106.585 81.1186 104.36 83.4333 100.848 84.2587C97.492 85.047 95.5972 87.5727 94.6087 91.1624C94.1713 92.7493 93.6563 94.3122 93.1261 95.8633C91.8547 99.5824 89.2949 101.088 85.928 101.167C85.8642 101.174 85.8 101.173 85.7362 101.167C82.2489 100.522 80.2615 102.736 78.6602 105.83C77.6873 107.739 76.615 109.582 75.4491 111.347C74.3412 112.971 72.7591 114.093 70.9872 114.512C68.5348 115.161 66.029 115.671 63.6726 116.637C60.5756 117.908 58.248 120.354 56.6603 123.694C55.4454 126.252 53.4558 127.624 50.9534 128.138C47.8121 128.784 44.743 129.638 42.5453 132.59C42.2163 133.032 41.7647 133.431 41.6017 133.944C41.1664 135.316 40.1688 135.583 39.1293 135.643C38.6634 135.67 37.9656 135.402 37.7571 135.007C37.6433 134.73 37.5854 134.427 37.5878 134.121C37.5902 133.815 37.6527 133.514 37.7708 133.239C37.926 132.978 38.0236 132.678 38.0554 132.366C38.0872 132.053 38.0523 131.736 37.9535 131.441C37.8163 130.966 37.9289 130.398 37.9298 129.793Z" fill="#0066F5"/>
<path d="M34.8085 100.078C34.8085 100.078 50.4535 96.3507 68.5633 105.592C86.6731 114.833 87.4264 129.937 86.9129 135.567C86.9129 135.567 84.7561 127.452 79.9291 124.385C79.9291 124.385 82.6334 128.112 81.1614 135.49C81.1614 135.49 78.2516 125.2 71.8497 123.996L43.7778 120.346L34.8085 100.078Z" fill="#107A48"/>
<path d="M101.348 127.801C101.348 127.801 120.227 104.231 151.712 111.945C151.712 111.945 122.802 111.82 109.803 137.999C109.803 137.999 103.394 134.493 101.348 127.801Z" fill="white"/>
<path d="M122.86 146.079C122.86 146.079 130.701 122.632 151.712 111.945C146.811 124.291 144.193 155.57 144.193 155.57C130.793 155.663 122.86 146.079 122.86 146.079" fill="white"/>
<path d="M39.2589 145.565C40.6454 145.944 42.5711 151.244 42.5711 151.244C43.2516 148.885 41.8111 143.871 41.8111 143.871C44.3248 145.51 46.9492 155.302 46.9492 155.302C47.7715 153.36 46.8154 146.853 46.8154 146.853C49.3109 148.198 51.8166 159.6 51.8166 159.6C53.0771 157.578 52.3705 152.599 52.3705 152.599C55.3146 154.372 58.4759 164.784 58.4759 164.784C59.1148 161.562 58.1563 156.165 58.1563 156.165C61.203 159.058 64.1901 169.765 64.1901 169.765C65.2041 166.605 64.2842 161.543 64.2842 161.543C65.6606 163.343 69.3507 172.648 69.3507 172.648C74.9996 127.801 37.8267 120.772 37.8267 120.772L39.2589 145.565Z" fill="#0E7946"/>
<path d="M205.248 335.471L155.753 340.557L155.597 340.572L155.671 341.305L176.267 546.03L364.928 521.747L344.401 317.53L205.248 335.471Z" fill="#F3FDFF"/>
<path d="M148.835 524.351L147.905 570.878L388.142 556.994L413.143 517.381L327.458 488.086L148.835 524.351Z" fill="#FEE7D8"/>
<path d="M188.95 388.383L159.449 382.34L174.315 529.387L206.05 520.301L188.95 388.383ZM327.458 488.086L313.888 393.691L228.597 390.225L245.887 510.4" fill="#F7F7F7"/>
<path d="M251.738 473.14L335.456 457.749L321.591 452.158L238.775 460.852L251.738 473.14Z" fill="#FAFAF6"/>
<path d="M251.948 476.448L335.401 461.106L335.456 457.749L251.738 473.14L251.948 476.448Z" fill="#E5E8D3"/>
<path d="M251.948 476.448L251.738 473.14L238.775 460.852L239.194 463.88L251.948 476.448Z" fill="#959883"/>
<path d="M205.552 481.631L170.438 488.086L170.786 491.545L206.902 484.73V481.383L205.552 481.631Z" fill="#E5E8D3"/>
<path d="M245.887 510.4L242.51 509.468L225.522 389.813L228.597 390.225L245.887 510.4Z" fill="#A7A7A7"/>
<path d="M206.902 481.383L198.912 465.03L168.441 468.236L170.438 488.086L206.902 481.383Z" fill="#FAFAF6"/>
<path opacity="0.86" d="M176.267 546.031V546.03L176.263 546.031L176.267 546.031Z" fill="#7A7A7A" stroke="#E6E6E6" stroke-width="16.496" stroke-miterlimit="10"/>
<path opacity="0.18" d="M367.288 369.581L368.256 369.283L368.925 368.697L368.813 367.368L369.939 367.216L370.421 366.45L370.669 365.465L371.775 365.292L371.939 364.226L372.338 363.382L372.994 362.783L373.133 361.692L373.999 361.293L374.978 361L374.929 359.731L375.47 359.023L376.261 358.551L376.651 357.698L376.851 356.666L378.039 356.571L378.632 355.909L379.007 355.042L379.008 355.039L328.18 306.818L327.694 307.428L327.408 308.229L327.379 309.271L326.623 309.623L326.131 310.226L325.38 310.583L325.513 311.779L324.746 312.121L324.588 313.04L324.194 313.735L323.085 313.751L322.917 314.661L322.758 315.579L322.068 315.994L321.511 316.534L320.92 317.042L320.498 317.712L319.992 318.301L319.925 319.306L319.086 319.578L318.931 320.501L318.642 321.295L317.973 321.73L317.404 322.258L367.279 369.575L367.288 369.581Z" fill="#8C8C8C"/>
<g opacity="0.4">
<path opacity="0.4" d="M346.018 418.156L417.257 322.545M282.068 356.861L353.306 261.251L282.068 356.861ZM284.006 358.718L355.244 263.108L284.006 358.718ZM285.944 360.576L357.182 264.965L285.944 360.576ZM287.881 362.433L359.12 266.823L287.881 362.433ZM289.819 364.29L361.058 268.68L289.819 364.29ZM291.757 366.148L362.996 270.538L291.757 366.148ZM293.695 368.005L364.934 272.395L293.695 368.005ZM295.633 369.863L366.872 274.252L295.633 369.863ZM297.571 371.72L368.81 276.11L297.571 371.72ZM299.509 373.577L370.747 277.967L299.509 373.577ZM301.447 375.435L372.685 279.825L301.447 375.435ZM303.384 377.292L374.623 281.682L303.384 377.292ZM305.322 379.15L376.561 283.54L305.322 379.15ZM307.26 381.007L378.499 285.397L307.26 381.007ZM309.198 382.865L380.437 287.254L309.198 382.865ZM311.136 384.722L382.375 289.112L311.136 384.722ZM313.074 386.58L384.313 290.969L313.074 386.58ZM315.012 388.437L386.25 292.827L315.012 388.437ZM316.95 390.294L388.188 294.684L316.95 390.294ZM318.888 392.152L390.126 296.541L318.888 392.152ZM320.826 394.009L392.064 298.399L320.826 394.009ZM322.764 395.867L394.002 300.256L322.764 395.867ZM324.701 397.724L395.94 302.114L324.701 397.724ZM326.639 399.581L397.878 303.971L326.639 399.581ZM328.577 401.439L399.816 305.829L328.577 401.439ZM330.515 403.296L401.754 307.686L330.515 403.296ZM332.453 405.154L403.692 309.544L332.453 405.154ZM334.391 407.011L405.629 311.401L334.391 407.011ZM336.329 408.869L407.567 313.258L336.329 408.869ZM338.266 410.726L409.505 315.116L338.266 410.726ZM340.204 412.584L411.443 316.973L340.204 412.584ZM342.142 414.441L413.381 318.831L342.142 414.441ZM344.08 416.298L415.319 320.688L344.08 416.298Z" stroke="white" stroke-width="1.842" stroke-miterlimit="10"/>
</g>
<path opacity="0.18" d="M202.146 561.587L203.143 561.466L203.886 561.006L203.959 559.674L205.093 559.724L205.674 559.054L206.056 558.125L207.172 558.152L207.482 557.128L207.993 556.366L208.724 555.892L209.012 554.839L209.923 554.599L210.931 554.486L211.058 553.223L211.691 552.621L212.537 552.295L213.041 551.523L213.381 550.54L214.568 550.657L215.245 550.11L215.736 549.32L215.737 549.317L172.233 492.626L171.668 493.141L171.275 493.881L171.102 494.905L170.306 495.118L169.737 495.626L168.946 495.844L168.911 497.049L168.106 497.25L167.823 498.129L167.337 498.745L166.239 498.563L165.948 499.432L165.664 500.31L164.925 500.597L164.299 501.031L163.645 501.427L163.136 502.013L162.554 502.504L162.348 503.485L161.482 503.604L161.201 504.488L160.806 505.221L160.085 505.53L159.449 505.95L202.138 561.579L202.146 561.587Z" fill="#8C8C8C"/>
<g opacity="0.4">
<path opacity="0.4" d="M174.402 605.76L258.018 524.056M119.752 533.815L203.369 452.111L119.752 533.815ZM121.408 535.995L205.025 454.291L121.408 535.995ZM123.064 538.175L206.681 456.471L123.064 538.175ZM124.72 540.356L208.337 458.651L124.72 540.356ZM126.376 542.536L209.993 460.831L126.376 542.536ZM128.032 544.716L211.649 463.011L128.032 544.716ZM129.688 546.896L213.305 465.191L129.688 546.896ZM131.345 549.076L214.961 467.372L131.345 549.076ZM133.001 551.256L216.617 469.552L133.001 551.256ZM134.657 553.436L218.273 471.732L134.657 553.436ZM136.313 555.617L219.929 473.912L136.313 555.617ZM137.969 557.797L221.585 476.092L137.969 557.797ZM139.625 559.977L223.241 478.272L139.625 559.977ZM141.281 562.157L224.897 480.453L141.281 562.157ZM142.937 564.337L226.553 482.633L142.937 564.337ZM144.593 566.517L228.209 484.813L144.593 566.517ZM146.249 568.698L229.865 486.993L146.249 568.698ZM147.905 570.878L231.521 489.173L147.905 570.878ZM149.561 573.058L233.178 491.353L149.561 573.058ZM151.217 575.238L234.833 493.533L151.217 575.238ZM152.873 577.418L236.489 495.714L152.873 577.418ZM154.529 579.598L238.146 497.894L154.529 579.598ZM156.185 581.778L239.802 500.074L156.185 581.778ZM157.841 583.958L241.458 502.254L157.841 583.958ZM159.497 586.139L243.114 504.434L159.497 586.139ZM161.153 588.319L244.77 506.614L161.153 588.319ZM162.809 590.499L246.426 508.795L162.809 590.499ZM164.465 592.679L248.082 510.975L164.465 592.679ZM166.121 594.859L249.738 513.155L166.121 594.859ZM167.778 597.039L251.394 515.335L167.778 597.039ZM169.434 599.22L253.05 517.515L169.434 599.22ZM171.089 601.4L254.706 519.695L171.089 601.4ZM172.746 603.58L256.362 521.875L172.746 603.58Z" stroke="white" stroke-width="1.842" stroke-miterlimit="10"/>
</g>
<path d="M176.821 151.699L180.483 37.2216L281.417 41.3748L277.755 155.853L176.821 151.699Z" fill="#F3FDFF"/>
<path d="M195.353 84.7503C201.056 84.7503 205.679 79.7141 205.679 73.5017C205.679 67.2893 201.056 62.2531 195.353 62.2531C189.65 62.2531 185.027 67.2893 185.027 73.5017C185.027 79.7141 189.65 84.7503 195.353 84.7503Z" fill="#003783"/>
<path d="M177.501 51.4227L208.479 47.6234L211.63 76.0091L180.18 80.7241L177.501 51.4227Z" fill="#0066F5"/>
<path d="M204.862 92.7497C203.915 92.3297 203.279 91.0526 202.858 90.0877C201.933 87.8327 201.345 85.4188 201.118 82.9448C200.722 79.4067 201.085 75.827 200.055 72.3864C199.141 69.3364 197.207 66.6259 194.621 65.2937C195.597 65.7967 196.539 67.132 197.188 68.0638C197.94 69.1432 198.554 70.3378 199.01 71.6122C200.031 74.4645 200.26 77.6776 200.079 80.7241C199.379 92.485 202.412 95.7934 202.412 95.7934" stroke="#F2F2F2" stroke-width="2.499" stroke-linecap="round" stroke-linejoin="round"/>
<path d="M256.451 74.72C255.371 73.1695 254.697 72.1805 254.684 72.1055C254.626 71.7743 238.699 71.4435 238.699 71.4435L236.241 79.33L235.16 77.7076C233.465 80.5913 232.702 86.8805 232.412 90.1063C232.356 90.7141 232.465 91.3266 232.724 91.8626C232.982 92.3986 233.378 92.833 233.859 93.108C237.623 95.254 242.384 96.5384 247.567 96.5384C254.636 96.5384 259.721 92.4499 263.471 88.338C263.902 87.8679 264.182 87.247 264.264 86.5751C264.346 85.9033 264.227 85.2196 263.925 84.634C262.638 82.1486 260.107 77.9086 256.451 74.72Z" fill="#003783"/>
<path d="M222.948 77.2663L244.3 56.8868L268.102 69.0618L249.434 94.9993L222.948 77.2663Z" fill="#0066F5"/>
<path d="M229.482 53.4462C243.133 58.5409 246.75 75.2811 246.75 75.2811C246.75 75.2811 246.665 58.3426 228.622 49.0788" stroke="#A2E4FC" stroke-width="2.2" stroke-linecap="round" stroke-linejoin="round"/>
<path d="M234.149 128.789C234.149 128.789 226.059 123.407 218.047 124.643C218.047 124.643 226.169 126.98 228.622 134.964" stroke="#0066F5" stroke-width="2.499" stroke-linecap="round" stroke-linejoin="round"/>
<path d="M209.296 108.145C209.354 107.946 210.521 104.77 210.521 104.77L232.26 105.895L217.464 145.86L192.261 143.346L209.296 108.145Z" fill="#0066F5"/>
<path d="M205.721 136.128L194.41 134.902L205.936 103.523L215.026 113.99C215.613 114.66 215.969 115.546 216.03 116.488C216.202 119.338 215.779 125.829 210.078 134.026C209.564 134.761 208.896 135.339 208.135 135.706C207.374 136.074 206.544 136.219 205.721 136.128Z" fill="#003783"/>
<path d="M206.598 121.6C209.398 112.668 208.481 104.142 204.549 102.557C200.618 100.971 195.161 106.927 192.361 115.859C189.562 124.791 190.479 133.317 194.41 134.902C198.342 136.487 203.799 130.531 206.598 121.6Z" fill="#002C69"/>
<path d="M255.929 142.993L262.721 134.467C263.063 134.037 263.54 133.776 264.05 133.739C264.559 133.703 265.062 133.893 265.449 134.271C268.238 136.98 273.939 143.741 274.151 153.904C274.162 154.407 274.023 154.901 273.755 155.303C273.487 155.706 273.108 155.993 272.677 156.119L261.685 159.314L255.929 142.993Z" fill="#003783"/>
<path d="M238.583 137.743L258.185 132.384L270.436 166.328L249.959 170.298L238.583 137.743Z" fill="#0066F5"/>
<path d="M234.149 179.826C237.248 159.457 254.509 150.051 254.509 150.051C254.509 150.051 236.534 171.354 237.686 184.292" stroke="#F2F2F2" stroke-width="2.499" stroke-linecap="round" stroke-linejoin="round"/>
<path d="M244.329 25.5637L261.218 52.652L288.037 28.3024L270.436 1.04132L244.329 25.5637Z" fill="#0066F5"/>
<path d="M264.135 38.8891C271.159 38.8891 276.853 31.9571 276.853 23.406C276.853 14.855 271.159 7.92296 264.135 7.92296C257.111 7.92296 251.417 14.855 251.417 23.406C251.417 31.9571 257.111 38.8891 264.135 38.8891Z" fill="#003783"/>
<path d="M376.778 505.125L377.45 504.456C377.22 504.671 376.996 504.894 376.778 505.125ZM377.45 504.456L376.778 505.125L377.45 504.456Z" fill="#CCCCCC"/>
<path d="M125.661 283.195L1.22314 306.063L25.4177 475.425L149.855 452.557L125.661 283.195Z" fill="#0066F5"/>
<path d="M25.0201 368.845C28.78 370.16 33.6362 370.511 33.6365 370.511L30.3106 388.173C30.3106 388.173 28.8389 396.808 33.3566 402.94C33.3566 402.94 33.7236 404.053 33.9451 407.788C34.1667 411.523 35.1683 411.497 35.1683 411.497L36.0342 411.701L36.1708 411.733L36.1362 411.91L36.2127 413.6L36.0342 411.701L35.3443 420.914C35.6075 422.341 37.1541 423.62 37.1541 423.62C37.1541 423.62 43.1612 431.986 83.0545 424.655L83.0323 424.653L83.0775 424.651C122.971 417.32 126.341 407.231 126.341 407.231C126.341 407.231 127.453 405.463 127.305 404.015L124.086 395.519L124.85 395.016C124.85 395.016 125.808 394.683 124.979 391.059C124.149 387.435 124.187 386.248 124.187 386.248C126.767 378.812 122.966 371.146 122.966 371.146L114.893 355.579C114.894 355.578 119.403 353.506 122.605 350.912C124.555 349.332 125.038 345.95 125.118 343.547C125.128 343.237 125.073 342.929 124.956 342.648C124.84 342.367 124.665 342.122 124.448 341.933C124.231 341.744 123.977 341.618 123.707 341.563C123.438 341.509 123.161 341.529 122.899 341.621C120.38 342.507 116.305 343.942 114.357 344.639C113.792 344.834 113.309 345.257 113.001 345.828C113.001 345.828 105.503 326.363 95.1885 324.561C95.1885 324.561 89.0964 323.244 69.0402 326.397L69.0411 326.396L69.0299 326.399L69.0184 326.401L69.0193 326.401C49.1115 330.592 43.6978 334.023 43.6978 334.023C34.4125 339.427 32.7177 360.581 32.7177 360.581C32.2658 360.15 31.6903 359.922 31.1 359.939C29.0568 359.975 24.7916 360.073 22.1541 360.135C21.8805 360.141 21.6122 360.221 21.3716 360.369C21.1311 360.517 20.9254 360.729 20.7717 360.985C20.6181 361.242 20.521 361.537 20.4886 361.845C20.4562 362.154 20.4895 362.466 20.5856 362.757C21.3304 365.008 22.7305 368.044 25.0198 368.845H25.0201Z" fill="#003783"/>
<path d="M50.9938 399.175C50.9938 399.175 60.0162 399.694 75.3076 397.186M51.4257 398.165C51.4257 398.165 60.1151 398.507 75.4065 395.999L51.4257 398.165Z" stroke="#9DA5B4" stroke-width="1.1" stroke-miterlimit="10"/>
<path d="M37.389 399.884C39.0149 399.884 40.333 398.389 40.333 396.545C40.333 394.701 39.0149 393.206 37.389 393.206C35.763 393.206 34.4449 394.701 34.4449 396.545C34.4449 398.389 35.763 399.884 37.389 399.884Z" stroke="#5AC8FA" stroke-width="0.55" stroke-miterlimit="10"/>
<path d="M44.7949 402.445C46.6837 402.445 48.2149 400.709 48.2149 398.567C48.2149 396.424 46.6837 394.688 44.7949 394.688C42.9062 394.688 41.375 396.424 41.375 398.567C41.375 400.709 42.9062 402.445 44.7949 402.445Z" stroke="#5AC8FA" stroke-width="0.55" stroke-miterlimit="10"/>
<path d="M44.7948 401.309C46.1305 401.309 47.2132 400.081 47.2132 398.567C47.2132 397.052 46.1305 395.824 44.7948 395.824C43.4592 395.824 42.3765 397.052 42.3765 398.567C42.3765 400.081 43.4592 401.309 44.7948 401.309Z" fill="white" stroke="white" stroke-width="0.903" stroke-miterlimit="10"/>
<path d="M37.389 398.226C38.2079 398.226 38.8717 397.474 38.8717 396.545C38.8717 395.616 38.2079 394.863 37.389 394.863C36.5702 394.863 35.9064 395.616 35.9064 396.545C35.9064 397.474 36.5702 398.226 37.389 398.226Z" fill="white" stroke="white" stroke-width="0.903" stroke-miterlimit="10"/>
<path d="M36.1246 411.913L47.817 414.665L47.8419 418.872L38.3293 422.853C38.3293 422.853 36.5295 421.922 36.2867 420.605L36.9235 412.101" fill="#002C69"/>
<path d="M106.381 388.996C106.381 388.996 97.9649 392.72 82.7573 395.816M105.69 388.192C105.69 388.192 97.5406 391.63 82.3333 394.726L105.69 388.192Z" stroke="#9DA5B4" stroke-width="1.1" stroke-miterlimit="10"/>
<path d="M118.558 384.968C120.184 384.968 121.502 383.473 121.502 381.629C121.502 379.785 120.184 378.29 118.558 378.29C116.932 378.29 115.614 379.785 115.614 381.629C115.614 383.473 116.932 384.968 118.558 384.968Z" stroke="#5AC8FA" stroke-width="0.55" stroke-miterlimit="10"/>
<path d="M112.094 390.078C113.982 390.078 115.514 388.341 115.514 386.199C115.514 384.057 113.982 382.32 112.094 382.32C110.205 382.32 108.674 384.057 108.674 386.199C108.674 388.341 110.205 390.078 112.094 390.078Z" stroke="#5AC8FA" stroke-width="0.55" stroke-miterlimit="10"/>
<path d="M112.094 388.942C113.429 388.942 114.512 387.714 114.512 386.199C114.512 384.684 113.429 383.456 112.094 383.456C110.758 383.456 109.675 384.684 109.675 386.199C109.675 387.714 110.758 388.942 112.094 388.942Z" fill="white" stroke="white" stroke-width="0.903" stroke-miterlimit="10"/>
<path d="M118.558 383.31C119.377 383.31 120.04 382.558 120.04 381.629C120.04 380.7 119.377 379.947 118.558 379.947C117.739 379.947 117.075 380.7 117.075 381.629C117.075 382.558 117.739 383.31 118.558 383.31Z" fill="white" stroke="white" stroke-width="0.903" stroke-miterlimit="10"/>
<path d="M124.036 395.758L113.708 402.557L114.856 406.557L124.99 406.927C124.99 406.927 126.438 405.399 126.302 404.063L123.33 396.222" fill="#002C69"/>
<path d="M78.4787 392.707C79.2132 392.572 79.9665 392.687 80.6433 393.037C81.3202 393.388 81.8901 393.958 82.2811 394.676C82.6722 395.394 82.8667 396.228 82.8401 397.071C82.8135 397.914 82.567 398.73 82.1318 399.414C81.6965 400.099 81.0921 400.621 80.395 400.916C79.6978 401.211 78.9392 401.265 78.2151 401.071C77.4909 400.877 76.8339 400.443 76.3269 399.826C75.8199 399.208 75.4858 398.434 75.3668 397.601C75.2127 396.484 75.4531 395.344 76.0357 394.428C76.6184 393.512 77.4963 392.893 78.4787 392.707Z" stroke="#9DA5B4" stroke-width="0.9" stroke-miterlimit="10"/>
<g opacity="0.5">
<path opacity="0.5" d="M78.5015 319.496L60.066 392.647" stroke="white" stroke-width="50.588" stroke-miterlimit="10"/>
<path opacity="0.5" d="M93.8425 318.156L75.4067 391.307" stroke="white" stroke-width="13.197" stroke-miterlimit="10"/>
</g>
<path d="M78.6475 393.866C79.1797 393.768 79.7255 393.852 80.2159 394.106C80.7063 394.36 81.1193 394.773 81.4026 395.293C81.6859 395.813 81.8269 396.417 81.8076 397.028C81.7883 397.639 81.6097 398.23 81.2944 398.726C80.979 399.222 80.5411 399.601 80.0359 399.815C79.5308 400.028 78.9811 400.067 78.4564 399.927C77.9318 399.786 77.4557 399.472 77.0883 399.024C76.721 398.577 76.4789 398.016 76.3927 397.412C76.2811 396.603 76.4553 395.777 76.8775 395.113C77.2998 394.449 77.9359 394.001 78.6478 393.866H78.6475Z" fill="#002C69"/>
<path d="M159.59 136.194L196.253 142.572L164.215 379.444L127.553 373.066L159.59 136.194Z" fill="#0066F5"/>
<path d="M159.59 136.194L196.253 142.572L164.215 379.444L127.553 373.066L159.59 136.194Z" fill="#0066F5"/>
<path d="M221.031 374.655C228.727 374.655 234.966 367.579 234.966 358.85C234.966 350.121 228.727 343.045 221.031 343.045C213.335 343.045 207.096 350.121 207.096 358.85C207.096 367.579 213.335 374.655 221.031 374.655Z" stroke="#FCE0C0" stroke-linecap="round" stroke-linejoin="round"/>
<path d="M145.264 336.487L142.979 372.541C142.815 375.121 144.527 377.362 146.801 377.547L222.844 383.748C225.119 383.933 227.095 381.993 227.258 379.413L229.544 343.359C229.707 340.78 227.996 338.538 225.722 338.353L149.678 332.152C147.404 331.967 145.428 333.908 145.264 336.487Z" fill="#E6FAFF"/>
<path d="M152.471 222.797L145.857 327.146C145.693 329.725 147.405 331.967 149.679 332.152L225.722 338.353C227.997 338.538 229.973 336.597 230.136 334.018L236.751 229.669C236.914 227.089 235.203 224.848 232.929 224.662L156.885 218.462C154.611 218.276 152.635 220.217 152.471 222.797Z" fill="#E6FAFF"/>
<path d="M155.834 169.763L153.064 213.456C152.9 216.035 154.612 218.277 156.886 218.462L232.929 224.663C235.204 224.848 237.18 222.907 237.344 220.328L240.113 176.635C240.277 174.055 238.565 171.814 236.291 171.628L160.248 165.428C157.973 165.242 155.997 167.183 155.834 169.763Z" fill="#E6FAFF"/>
<path d="M132.172 143.834L169.169 146.851L154.016 385.876L117.02 382.859L132.172 143.834Z" fill="#0066F5"/>
<path d="M132.172 143.834L169.169 146.851L154.016 385.876L117.02 382.859L132.172 143.834Z" fill="#0066F5"/>
<path d="M209.189 375.976C216.885 375.976 223.124 368.9 223.124 360.171C223.124 351.442 216.885 344.366 209.189 344.366C201.493 344.366 195.254 351.442 195.254 360.171C195.254 368.9 201.493 375.976 209.189 375.976Z" stroke="#509CFC" stroke-width="1.1" stroke-miterlimit="10"/>
<path d="M132.172 143.834L169.169 146.851L154.016 385.876L117.02 382.859L132.172 143.834Z" fill="#0066F5"/>
<path d="M209.189 373.602C215.729 373.602 221.031 367.589 221.031 360.171C221.031 352.753 215.729 346.74 209.189 346.74C202.649 346.74 197.347 352.753 197.347 360.171C197.347 367.589 202.649 373.602 209.189 373.602Z" stroke="#509CFC" stroke-width="0.55" stroke-miterlimit="10"/>
<path d="M130.506 200.733L215.053 206.223C215.668 206.263 216.27 206.44 216.825 206.744C217.38 207.048 217.877 207.472 218.287 207.994C218.697 208.516 219.012 209.124 219.215 209.784C219.418 210.444 219.504 211.143 219.469 211.84L213.324 333.58C213.253 334.989 212.691 336.308 211.762 337.247C210.834 338.186 209.614 338.669 208.371 338.588L123.825 333.098C123.519 333.079 123.219 332.991 122.944 332.84C122.668 332.688 122.421 332.477 122.217 332.218C122.013 331.959 121.856 331.656 121.755 331.328C121.654 331 121.612 330.653 121.629 330.306L128.044 203.223C128.061 202.876 128.139 202.537 128.272 202.224C128.405 201.911 128.592 201.631 128.82 201.4C129.049 201.168 129.315 200.99 129.605 200.876C129.894 200.762 130.2 200.713 130.506 200.733Z" fill="#0E7A46"/>
<path d="M465.609 532.95C466.06 531.101 465.847 529.124 465.017 527.451C464.187 525.779 462.807 524.547 461.179 524.025C459.55 523.503 457.806 523.733 456.327 524.665C454.848 525.597 453.754 527.155 453.284 528.999C453.73 527.144 453.509 525.165 452.67 523.495C451.831 521.825 450.443 520.601 448.81 520.089C447.176 519.578 445.431 519.821 443.956 520.767C442.48 521.712 441.395 523.282 440.939 525.133C440.939 525.133 437.836 534.476 448.955 546.564L448.955 546.567L448.957 546.566L448.958 546.568L448.959 546.565C463.993 542.764 465.609 532.95 465.609 532.95Z" fill="#0066F5"/>
<path d="M442.562 435.796C435.51 435.796 429.793 442.09 429.793 449.854C429.793 457.617 435.51 463.911 442.562 463.911C449.614 463.911 455.331 457.617 455.331 449.854C455.331 442.09 449.614 435.796 442.562 435.796ZM442.562 461.992C436.454 461.992 431.485 456.547 431.485 449.854C431.485 443.16 436.454 437.715 442.562 437.715C448.67 437.715 453.639 443.161 453.639 449.854C453.639 456.547 448.67 461.992 442.562 461.992Z" fill="#003783"/>
<path d="M449.859 470.658C449.864 470.574 449.866 470.521 449.866 470.521L449.861 470.522C449.928 467.342 445.687 460.415 439.342 453.681C433.258 447.225 427.148 442.969 424.192 442.88C423.33 442.8 422.276 442.911 421.634 443.737C421.134 444.397 420.842 445.228 420.805 446.097C420.805 446.097 422.902 446.734 422.928 446.668C422.94 446.639 423.501 445.909 424.108 445.126C427.364 446.228 432.554 450.125 437.723 455.611C443.099 461.317 446.965 467.162 447.98 470.749L447.632 470.791L446.435 474.224C446.435 474.224 447.133 474.612 448.437 473.742C449.585 472.975 449.811 471.284 449.855 470.715L449.859 470.658Z" fill="#5AC8FA"/>
<path d="M437.266 459.019C436.917 458.449 436.529 457.911 436.104 457.412C435.413 456.567 434.609 455.851 433.722 455.29C432.852 454.778 432.191 454.726 431.809 455.141L426.139 461.305C426.087 461.363 426.043 461.427 426.007 461.498C425.5 462.282 423.802 465.353 426.206 468.172C428.496 470.857 431.241 469.259 432.029 468.705C432.111 468.664 432.186 468.608 432.251 468.539L437.922 462.375C438.442 461.81 438.196 460.556 437.266 459.019H437.266Z" fill="white"/>
<path d="M355.432 454.44L355.225 454.646V454.647L355.432 454.44Z" fill="#CCCCCC"/>
<path d="M381.939 473.575C381.026 474.982 379.502 476.347 377.389 477.627C373.913 479.73 369.161 481.416 364.009 482.374C361.215 482.905 358.388 483.179 355.556 483.192C350.534 483.192 346.709 482.222 344.534 480.489L354.052 546.363C354.628 550.346 363.466 552.019 373.794 550.099C384.122 548.18 392.027 543.395 391.452 539.412L381.939 473.575Z" stroke="#F7F7F7" stroke-width="1.034" stroke-miterlimit="10"/>
<path d="M364.444 452.877L363.182 444.148C363.169 444.063 363.146 443.98 363.113 443.902C362.813 442.93 361.469 439.41 357.86 440.1C354.422 440.758 354.007 444.431 353.96 445.543C353.943 445.649 353.942 445.757 353.955 445.863L355.225 454.646L355.432 454.44L355.225 454.647L355.3 455.168C355.423 456.02 356.535 456.529 358.274 456.529C358.922 456.526 359.568 456.464 360.207 456.342C361.271 456.165 362.303 455.798 363.266 455.256C364.181 454.703 364.617 454.079 364.527 453.453L364.444 452.878V452.877ZM348.785 510.403C348.785 510.403 347.22 499.574 363.076 497.196C374.695 495.454 375.493 498.324 380.443 494.376C380.443 494.376 383.212 491.803 384.734 493.411C386.255 495.019 378.409 515.386 360.175 518.629C360.175 518.629 350.137 519.76 348.785 510.403Z" fill="#F9F9F9"/>
<path d="M391.409 539.412L384.854 494.047C384.398 498.72 376.399 515.241 360.133 518.133C360.133 518.133 350.094 519.265 348.742 509.908L354.01 546.363C354.585 550.346 363.424 552.019 373.751 550.099C384.079 548.18 391.985 543.395 391.409 539.412Z" fill="white"/>
<g opacity="0.54">
<path opacity="0.54" d="M363.278 557.395L348.029 555.359L357.19 468.087L372.439 470.123L363.278 557.395ZM367.986 559.317L377.799 464.726L381.777 465.257L371.964 559.848L367.986 559.317Z" fill="white"/>
</g>
<path d="M207.805 423.561C207.805 423.561 208.806 413.98 210.424 414.243C212.041 414.505 217.099 423.852 217.099 423.852" stroke="#E9F7FF" stroke-width="1.1" stroke-miterlimit="10"/>
<path d="M201.052 422.28L202.747 434.161L223.852 432.763L222.157 422.28H201.052Z" fill="white"/>
<path d="M202.747 434.161L201.052 422.28L200.359 422.91L202.081 434.983L223.219 433.396L223.852 432.763L202.747 434.161Z" fill="#0066F5"/>
<path d="M234.858 456.002L198.26 460.37L198.912 465.03L235.492 460.407L234.858 456.002Z" fill="#E8E8E8"/>
<path d="M371.02 202.846V202.827L346.856 208.822V218.047H346.825L346.932 218.046V208.822L371.02 202.846ZM349.943 218.032H349.916C357.264 218.033 364.335 218.271 371.02 218.775V218.77C364.342 218.269 357.28 218.032 349.943 218.032ZM365.996 178.104L350.513 181.074L333.76 184.288L320.435 186.844L383.957 174.659L365.996 178.104Z" fill="#DBDBDB"/>
<path d="M414.941 242.792L356.424 230.882V233.401L414.941 245.875L424.265 247.863V244.689L414.941 242.792ZM414.941 237.979L361.542 227.111V229.934L414.941 240.802L424.499 242.748V239.924L414.941 237.979Z" fill="#F4F4EC"/>
<path d="M346.856 196.174L371.02 198.182L315.835 193.597L346.856 196.174ZM449.098 229.807L423.575 232.492L449.098 229.807Z" fill="#DBDBDB"/>
<path d="M424.265 247.863L455.753 242.692L455.643 239.573L424.265 244.689V247.863Z" fill="#FAFAF6"/>
<path d="M424.499 242.748L455.576 237.681L455.476 234.874L424.499 239.924V242.748Z" fill="#DBDBDB"/>
<path d="M388.964 179.458V100.143L357.395 117.345L315.429 140.213V193.563L326.066 191.523L388.964 179.458ZM320.436 143.785L383.957 109.171V174.659L320.436 186.844V143.785Z" fill="#F4F4EC"/>
<path d="M414.941 184.947V113.016L388.964 100.143V179.458L414.941 184.947ZM414.941 184.947L454 193.2L451.807 131.285L414.941 113.016V184.947Z" fill="#FAFAF6"/>
<path d="M414.948 191.253L414.941 189.52V191.254L414.948 191.253Z" fill="#5D5D5D"/>
<path d="M423.575 190.01L418.191 188.993L423.574 190.01H423.575ZM423.575 190.01L454.091 195.779L423.575 190.01Z" fill="#E5E8D3"/>
<path d="M333.76 184.271V184.288L350.513 181.074V181.063L333.76 184.271Z" fill="#F3FDFF"/>
<path d="M350.513 181.063V181.074L365.996 178.104V178.098L350.513 181.063Z" fill="#F3FDFF"/>
<path d="M438.881 198.553V230.631L446.866 229.754V199.853L438.881 198.553Z" fill="#FAFAF6"/>
<path d="M449.148 229.802L449.098 229.806L449.148 229.802Z" fill="#737863"/>
<path d="M438.881 198.182V198.553L446.866 199.853V229.807H449.098L449.148 229.802V199.853L438.881 198.182ZM418.191 190.786V188.993L414.941 189.52L414.948 191.253L415.101 231.23L416.409 231.425L415.101 231.23L415.106 232.546L418.191 233.058V190.786Z" fill="#DBDBDB"/>
<path d="M371.02 218.77V202.846L346.932 208.822V218.046C347.907 218.037 348.885 218.033 349.867 218.032H349.943C357.28 218.032 364.342 218.269 371.02 218.77Z" fill="#FAFAF6"/>
<path d="M346.932 218.046V218.046C347.923 218.038 348.918 218.033 349.916 218.032L349.867 218.032C348.885 218.032 347.906 218.036 346.932 218.046Z" fill="#FAFAF6"/>
<path d="M371.02 218.77H371.02V218.774H371.02V218.77Z" fill="#F3FDFF"/>
<path d="M371.096 218.775V202.828L371.02 202.846V218.77C371.045 218.772 371.071 218.774 371.096 218.775V218.775ZM371.02 218.77V202.846V218.77Z" fill="#F3FDFF"/>
<path d="M389.63 194.901L387.994 195.136L386.931 195.29L389.63 194.901ZM387.994 195.136L379.085 196.42L386.931 195.29L387.994 195.136Z" fill="#F3FDFF"/>
<path d="M333.76 184.271L322.746 186.38V169.895L333.915 166.346L334.071 148.164L320.435 143.785V186.844L333.76 184.288V184.271Z" fill="#CECECE"/>
<path d="M365.996 178.104L383.957 174.659L365.996 178.098V178.104ZM350.513 161.071L333.915 166.346L333.76 184.271L350.513 181.063V161.071ZM350.513 181.063L365.996 178.098V156.15L350.513 161.071V181.063Z" fill="#F3FDFF"/>
<path d="M322.746 169.895V186.38L333.76 184.271L333.915 166.346L322.746 169.895Z" fill="#CECECE"/>
<path d="M365.996 178.098L383.957 174.659V150.441L365.996 156.15V178.098Z" fill="#F3FDFF"/>
<path opacity="0.25" d="M365.996 156.15L350.513 161.071L333.915 166.346L322.746 169.895V186.38L333.76 184.271L350.513 181.063L365.996 178.098L383.957 174.659V150.441L365.996 156.15Z" fill="#0066F5"/>
<path d="M414.941 191.254L409.409 192.051L408.255 192.217L414.941 191.254Z" fill="#F3FDFF"/>
<path d="M449.148 229.807V229.802L449.098 229.807H449.148ZM414.941 231.209L415.097 231.229L414.941 231.206V231.209ZM415.097 231.229L415.101 231.23H415.1L415.097 231.229Z" fill="#5D5D5D"/>
<path d="M414.941 231.206L415.097 231.229L415.1 231.229L414.941 231.206Z" fill="#5D5D5D"/>
<path d="M379.004 225.866V196.293M348.683 141.311V181.861V141.311ZM364.166 134.116V178.891V134.116ZM405.113 192.531V229.921V192.531ZM389.979 227.488L389.898 194.724L389.979 227.488Z" stroke="#5AC8FA" stroke-width="0.55" stroke-miterlimit="10"/>
<path opacity="0.18" d="M440.622 98.2327L441.567 98.6165L442.411 98.5697L442.989 97.4069L443.99 98.0127L444.771 97.6974L445.472 97.0506L446.466 97.6255L447.138 96.8578L447.891 96.4244L448.732 96.3587L449.395 95.5542L450.307 95.7883L451.258 96.1841L451.857 95.1108L452.659 94.8815L453.545 95.0072L454.295 94.5611L454.98 93.844L456.003 94.5366L456.822 94.3786L457.568 93.9105L457.57 93.9087L440.201 21.3795L439.495 21.5643L438.857 22.0356L438.307 22.8718L437.509 22.67L436.802 22.8456L436.006 22.6508L435.512 23.7179L434.71 23.501L434.117 24.152L433.443 24.4666L432.525 23.7602L431.929 24.3978L431.335 25.048L430.56 24.941L429.83 25.0215L429.089 25.0552L428.406 25.331L427.694 25.4855L427.132 26.2666L426.306 25.9454L425.714 26.6019L425.076 27.0663L424.308 26.9885L423.575 27.0518L440.618 98.221L440.622 98.2327Z" fill="#8C8C8C"/>
<g opacity="0.4">
<path opacity="0.4" d="M398.677 124.274L505.331 92.0736M377.139 32.5069L483.793 0.306366L377.139 32.5069ZM377.792 35.2877L484.446 3.08711L377.792 35.2877ZM378.444 38.0688L485.098 5.86785L378.444 38.0688ZM379.097 40.8495L485.751 8.64894L379.097 40.8495ZM379.749 43.6302L486.404 11.4297L379.749 43.6302ZM380.402 46.411L487.056 14.2104L380.402 46.411ZM381.055 49.1921L487.709 16.9912L381.055 49.1921ZM381.707 51.9728L488.362 19.7722L381.707 51.9728ZM382.36 54.7536L489.014 22.553L382.36 54.7536ZM383.013 57.5343L489.667 25.3337L383.013 57.5343ZM383.665 60.3154L490.319 28.1145L383.665 60.3154ZM384.318 63.0961L490.972 30.8956L384.318 63.0961ZM384.971 65.8769L491.625 33.6763L384.971 65.8769ZM385.623 68.6576L492.277 36.457L385.623 68.6576ZM386.276 71.4384L492.93 39.2378L386.276 71.4384ZM386.929 74.2194L493.583 42.0189L386.929 74.2194ZM387.581 77.0002L494.236 44.7996L387.581 77.0002ZM388.234 79.7809L494.888 47.5804L388.234 79.7809ZM388.887 82.5617L495.541 50.3611L388.887 82.5617ZM389.539 85.3428L496.194 53.1418L389.539 85.3428ZM390.192 88.1235L496.846 55.9229L390.192 88.1235ZM390.845 90.9042L497.499 58.7037L390.845 90.9042ZM391.497 93.685L498.152 61.4844L391.497 93.685ZM392.15 96.4661L498.804 64.2652L392.15 96.4661ZM392.803 99.2468L499.457 67.0462L392.803 99.2468ZM393.455 102.028L500.109 69.827L393.455 102.028ZM394.108 104.808L500.762 72.6077L394.108 104.808ZM394.761 107.589L501.415 75.3885L394.761 107.589ZM395.413 110.37L502.067 78.1696L395.413 110.37ZM396.066 113.151L502.72 80.9503L396.066 113.151ZM396.719 115.932L503.373 83.731L396.719 115.932ZM397.371 118.712L504.026 86.5118L397.371 118.712ZM398.024 121.493L504.678 89.2925L398.024 121.493Z" stroke="white" stroke-width="1.842" stroke-miterlimit="10"/>
</g>
</g>
<defs>
<clipPath id="clip0">
<rect width="472" height="606" fill="white"/>
</clipPath>
</defs>
</svg>
