<svg width="124" height="41" viewBox="0 0 124 41" fill="none" xmlns="http://www.w3.org/2000/svg">
<g style="mix-blend-mode:darken">
<path d="M39.6998 32.8944L39.7569 32.5746L26.8205 29.3025C27.0532 29.0447 27.2824 28.7799 27.5016 28.4965C28.9209 26.6619 29.9331 24.7869 30.5965 22.7649C30.9641 21.6436 31.1422 20.4922 31.1624 19.3014C31.2531 19.1215 31.3291 18.9395 31.3865 18.7546C32.1294 16.3571 31.624 13.8106 31.3615 12.7928C31.9918 11.2128 32.2655 9.43349 31.6622 7.78426C31.8709 7.74282 32.0812 7.70359 32.3089 7.6932C32.3159 7.69289 32.3213 7.6887 32.3285 7.68767C32.7163 7.77137 33.0894 7.7632 33.4014 7.5686C33.7657 7.34185 33.4755 6.65752 33.1095 6.88519C32.9356 6.99396 32.7181 7.01015 32.481 6.96853C32.4701 6.9632 32.4549 6.96258 32.4429 6.95842C31.8643 6.84175 31.1812 6.39164 30.7243 6.05245L30.7204 6.04199C30.663 5.89561 29.2895 2.44416 26.2572 0.835268C23.3734 -0.680321 16.8766 1.84143 16.6006 1.94979L15.7924 2.26863L16.6388 2.47007C16.7014 2.48465 22.9075 3.97859 25.2511 5.99649C25.6203 6.31397 26.0048 6.54227 26.3904 6.70127C27.9464 7.34289 29.5234 6.85902 30.2301 6.56892C30.4792 6.75986 30.7774 6.97106 31.1038 7.1666C29.7038 7.59354 28.6785 8.60967 27.7884 9.93906C25.6886 7.27895 22.9969 5.6565 20.1459 5.38163C17.2201 5.09837 14.3299 6.24707 12.0082 8.61677C10.955 9.69118 9.95759 10.8736 8.9931 12.0167C8.58087 12.5045 8.1701 12.992 7.75351 13.4731C5.89354 15.6185 3.89372 16.7285 1.63874 16.8654C0.978921 16.9054 0.509167 17.148 0.242518 17.5867C-0.0332263 18.04 -0.0741886 18.6736 0.121474 19.4714C0.875779 22.5408 2.06785 25.0119 3.47489 27.2797C4.50443 28.9394 6.99563 31.0414 7.49855 31.3996C8.19786 31.8973 9.01105 32.3401 9.90846 32.7101C10.9402 33.1356 12.0876 33.4515 13.2918 33.6545C15.0536 36.1087 17.6991 38.1363 20.7955 39.4132C21.6544 39.7673 22.5477 40.0643 23.4659 40.2969C31.3236 42.2842 38.6059 38.9634 39.6998 32.8944ZM26.072 1.32439C28.2111 2.4591 29.5001 4.62205 30.0233 5.66231C29.5064 5.21254 28.6563 4.79386 27.636 4.41325L27.6327 4.41027L27.6315 4.41217C27.1705 4.23972 26.6757 4.0758 26.16 3.9193L26.148 3.90793L26.1432 3.91479C22.9345 2.94619 18.9592 2.29675 17.742 2.11004C19.6798 1.45976 23.9939 0.229257 26.072 1.32439ZM20.4379 3.03802C19.7945 2.81522 19.1826 2.62307 18.6447 2.46385C19.1829 2.55422 19.857 2.67259 20.6157 2.8186L20.4379 3.03802ZM21.5701 3.45034C21.2571 3.32929 20.9467 3.21577 20.6398 3.10763L20.8385 2.86154C21.1614 2.92409 21.4955 2.99126 21.8401 3.06279L21.5701 3.45034ZM22.148 3.68064C22.0187 3.6273 21.8885 3.57682 21.7579 3.52538L22.05 3.10685C22.4061 3.18228 22.7688 3.26125 23.1362 3.34539L22.6607 3.90567C22.4897 3.83034 22.3215 3.75218 22.148 3.68064ZM22.8522 3.98947L23.3569 3.3955C23.7418 3.48441 24.1296 3.57774 24.5144 3.67628L23.8839 4.49267C23.5544 4.31752 23.2088 4.15014 22.8522 3.98947ZM24.0622 4.58625L24.7236 3.73043C25.1623 3.84478 25.5955 3.96405 26.016 4.08854L25.1455 5.28239C24.8197 5.04136 24.4634 4.80703 24.0622 4.58625ZM25.5213 5.56489C25.4568 5.50861 25.3736 5.45668 25.3044 5.40244L26.2183 4.14949C26.6687 4.28629 27.1005 4.42983 27.5066 4.57803L26.3475 6.10046C26.0659 5.96672 25.7883 5.79528 25.5213 5.56489ZM26.5322 6.18626L27.7025 4.64918C28.134 4.8127 28.5285 4.98179 28.8781 5.15721L27.9806 6.46667C27.5146 6.46142 27.0204 6.38516 26.5322 6.18626ZM28.2217 6.46265L29.0543 5.24833C29.5235 5.49875 29.8937 5.75968 30.1257 6.0294C29.7543 6.18423 29.0492 6.42766 28.2217 6.46265ZM34.3419 31.8641C35.0201 32.4277 35.5801 33.1511 35.8475 34.0891C34.1683 33.7913 32.4905 33.4813 30.8146 33.1575C30.3951 32.2042 29.8763 31.3157 29.254 30.577L34.3419 31.8641ZM31.5958 36.0825C29.5456 35.6621 27.4892 35.3332 25.4245 35.0914C25.1943 34.3291 24.9036 33.586 24.6145 32.8813C24.4997 32.6005 24.3767 32.3172 24.254 32.0348C26.3975 32.4936 28.5433 32.9349 30.6928 33.3512C31.0771 34.2452 31.3778 35.1833 31.5958 36.0825ZM28.9257 30.4946C29.5921 31.2154 30.1472 32.1276 30.5926 33.1141C28.4427 32.6969 26.2957 32.2551 24.1517 31.7953C23.6914 30.7593 23.155 29.7505 22.5078 28.8708L28.9257 30.4946ZM23.9153 31.7444C22.2323 31.3824 20.5517 31.0071 18.8721 30.6185C18.4357 29.4993 17.861 28.4642 17.1643 27.5193L22.2172 28.7975C22.8974 29.6715 23.441 30.6962 23.9153 31.7444ZM30.9488 18.5589C30.3089 20.6274 27.0083 22.4676 25.5481 23.1937C25.5541 23.1825 25.5613 23.1695 25.5675 23.1576C26.4974 21.8591 30.4597 16.1955 30.998 13.295C31.2465 14.4145 31.5665 16.5653 30.9488 18.5589ZM30.0666 15.3974C29.9061 15.7451 29.7301 16.1032 29.5393 16.4689L28.3673 16.1758C28.3807 16.0858 28.3959 15.9942 28.4057 15.9068C28.4386 15.5988 28.5058 15.3217 28.5933 15.0658L30.0666 15.3974ZM28.6653 14.8637C28.8424 14.4338 29.0872 14.0832 29.3524 13.7971L30.5724 14.1558C30.4593 14.4838 30.3206 14.8332 30.157 15.1989L28.6653 14.8637ZM27.6689 18.6798C27.7892 18.3581 27.9 18.038 27.9984 17.7225L28.7514 17.891C28.5802 18.1861 28.406 18.48 28.2295 18.7698L27.6689 18.6798ZM28.1098 18.9635C27.9403 19.2409 27.7703 19.5125 27.6025 19.7769L27.2669 19.6859C27.3797 19.4196 27.4897 19.1505 27.5938 18.8806L28.1098 18.9635ZM28.0601 17.5177C28.1749 17.1279 28.2703 16.7478 28.3349 16.3878L29.4356 16.6628C29.2536 17.0056 29.0616 17.3515 28.8634 17.6973L28.0601 17.5177ZM27.4828 19.9658C27.3058 20.2425 27.1326 20.5088 26.9649 20.7629L26.7985 20.7368C26.9282 20.4598 27.0573 20.1754 27.1833 19.8848L27.4828 19.9658ZM26.8355 20.959C26.6534 21.2344 26.4801 21.491 26.3186 21.7284C26.444 21.4785 26.574 21.2129 26.7043 20.9386L26.8355 20.959ZM30.8723 12.7716C30.8641 13.1075 30.7837 13.5058 30.6415 13.9541L29.5211 13.6244C30.03 13.1389 30.5797 12.8747 30.869 12.759C30.8701 12.7626 30.8713 12.7679 30.8723 12.7716ZM31.0278 7.96785C31.5705 9.36348 31.3627 10.8314 30.8734 12.1873C30.6767 12.2521 30.1493 12.4534 29.5894 12.8786C29.1087 11.9304 28.6001 11.0526 28.2291 10.5162C28.9861 9.35174 29.8556 8.40848 31.0278 7.96785ZM27.3929 10.55C27.254 10.7791 27.1164 11.011 26.9808 11.2527C26.7549 11.6561 27.2956 12.0908 27.5215 11.6874C27.6242 11.5044 27.7292 11.3279 27.8338 11.1505C28.1828 11.681 28.6346 12.4737 29.0603 13.3181C29.0613 13.3314 29.0593 13.341 29.0605 13.3535C28.9108 13.5115 28.7683 13.6902 28.6357 13.8874C28.1053 13.862 27.2447 13.2817 26.4489 12.3961C25.2661 11.0807 24.7745 9.76144 25.0571 9.35423C25.1171 9.26907 25.2113 9.22209 25.3381 9.21422C25.4777 9.20522 25.6456 9.24316 25.8328 9.32035C26.2196 9.47986 26.6879 9.81091 27.1578 10.2573C27.2364 10.3539 27.3159 10.4501 27.3929 10.55ZM7.83058 30.7529C7.34446 30.4064 5.02534 28.5358 3.98225 26.8119C2.65092 24.6122 1.48013 22.2462 0.751036 19.2778C0.611638 18.7126 0.62141 18.2939 0.779333 18.035C0.927539 17.7905 1.23356 17.6528 1.68684 17.6248C4.10672 17.4781 6.24359 16.2978 8.21857 14.0186C8.63702 13.5358 9.05069 13.0455 9.46416 12.5559C10.4204 11.4222 11.4099 10.2501 12.4456 9.19333C14.6361 6.95804 17.3569 5.87345 20.1053 6.13971C22.3824 6.36158 24.5513 7.50138 26.3707 9.37292C25.9686 9.11889 25.6032 8.98183 25.3243 8.99839C25.1433 9.00875 25.0045 9.0823 24.9119 9.21574C24.5232 9.77412 25.1429 11.2384 26.3213 12.5496C26.9538 13.2532 27.6173 13.7666 28.1552 13.9884C28.2796 14.0397 28.3946 14.0703 28.504 14.089C28.2279 14.5582 28.0176 15.13 27.9434 15.8285C27.6418 18.6798 24.774 23.5707 24.7453 23.6198L24.3261 24.33L25.0226 24.0293C25.2021 23.9518 28.6392 22.4471 30.4375 20.3564C30.3528 21.0771 30.2098 21.7849 29.9827 22.4781C29.3481 24.4141 28.375 26.2138 27.0094 27.9799C26.6972 28.3838 26.3656 28.7507 26.0254 29.1014L11.2461 25.3628L11.19 25.6741C10.7946 27.8716 11.2433 30.2014 12.4887 32.4122C12.5601 32.5387 12.6471 32.6596 12.7233 32.784C10.8326 32.3798 9.12241 31.6722 7.83058 30.7529ZM23.5709 39.6633C18.9429 38.4944 14.9726 35.6526 12.9527 32.0661C11.8511 30.1104 11.416 28.0669 11.6862 26.133L13.1952 26.5146C13.3764 29.7215 15.6718 32.7077 17.5868 34.7911C19.5591 36.9366 21.895 38.795 24.4498 39.8508C24.1572 39.7919 23.8652 39.7381 23.5709 39.6633ZM25.6331 40.0516C22.6701 39.1378 19.9602 37.0804 17.7261 34.6528C15.8466 32.6105 13.5778 29.6962 13.3817 26.5627L16.8686 27.4446C17.5953 28.3916 18.1911 29.4353 18.6471 30.5666C17.8326 30.3775 17.0167 30.1959 16.2026 30.0005C16.0855 29.9723 16.0771 30.1878 16.1929 30.2155C17.0441 30.4197 17.8971 30.6103 18.7489 30.8075C18.9714 31.3909 19.1681 31.9894 19.3136 32.6156C19.3446 32.7495 19.5269 32.7108 19.4954 32.5759C19.3574 31.984 19.1789 31.4147 18.974 30.8594C20.6544 31.2475 22.3364 31.6227 24.0209 31.9844C24.1171 32.2013 24.2152 32.4191 24.3075 32.6352C24.6347 33.4061 24.9683 34.2247 25.2275 35.0655C24.4786 34.9796 23.7285 34.9053 22.977 34.8433C22.858 34.8335 22.8475 35.049 22.9673 35.0583C23.7439 35.1226 24.5187 35.2007 25.2922 35.2903C25.4983 36.0009 25.6481 36.726 25.6841 37.4523C25.6905 37.5897 25.8766 37.6078 25.8694 37.4685C25.8333 36.7446 25.6875 36.0227 25.4862 35.3149C27.5793 35.562 29.6634 35.896 31.742 36.3264C31.8359 36.3459 31.857 36.2166 31.8039 36.1498C31.589 35.2399 31.2918 34.2968 30.9135 33.3941C32.8729 33.7721 34.834 34.1372 36.7975 34.4793C36.9161 34.5001 36.9251 34.2848 36.8072 34.2643C36.5554 34.2206 36.304 34.1707 36.0524 34.1263C35.8204 33.2446 35.3487 32.5383 34.757 31.9687L39.0895 33.0646C37.9763 38.071 32.2244 40.9512 25.6331 40.0516Z" fill="#0066F5"/>
<path d="M35.2236 15.0894L38.4149 27.0373L41.6062 15.0894H43.5881V29.7327H42.0513V24.0303L42.194 18.3178L38.9944 29.7327H37.8186L34.6357 18.358L34.7785 24.0303V29.7327H33.2417V15.0894H35.2236Z" fill="#0066F5"/>
<path d="M50.7097 29.7327C50.6201 29.498 50.5558 29.1024 50.5166 28.5459C49.9903 29.4712 49.3184 29.9338 48.501 29.9338C47.678 29.9338 47.0341 29.6589 46.5695 29.1091C46.1104 28.5526 45.8808 27.7715 45.8808 26.7658C45.8808 25.6595 46.1943 24.7812 46.8214 24.1308C47.4485 23.4805 48.3079 23.1486 49.3996 23.1352H50.4914V21.9786C50.4914 21.3282 50.371 20.8656 50.1302 20.5907C49.8895 20.3158 49.5228 20.1784 49.0301 20.1784C48.5822 20.1784 48.2183 20.3393 47.9383 20.6611C47.6584 20.9762 47.5184 21.3785 47.5184 21.868H46.032C46.032 21.3115 46.1691 20.7818 46.4435 20.2789C46.7178 19.7694 47.0873 19.3704 47.552 19.0821C48.0167 18.7938 48.5346 18.6497 49.1057 18.6497C50.0351 18.6497 50.7405 18.9279 51.222 19.4844C51.7091 20.0342 51.9582 20.8388 51.9694 21.8981V27.3894C51.975 28.2274 52.0702 28.9549 52.255 29.5718V29.7327H50.7097ZM48.7278 28.3146C49.0917 28.3146 49.4388 28.1939 49.7691 27.9526C50.0995 27.7112 50.3402 27.4095 50.4914 27.0474V24.4527H49.6516C48.9461 24.4661 48.389 24.6572 47.9803 25.0259C47.5716 25.388 47.3673 25.8975 47.3673 26.5546C47.3673 27.1714 47.4708 27.6207 47.678 27.9023C47.8852 28.1772 48.2351 28.3146 48.7278 28.3146Z" fill="#0066F5"/>
<path d="M55.6814 18.8508L55.7234 20.0275C56.3001 19.109 57.0363 18.6497 57.9321 18.6497C59.5389 18.6497 60.3535 19.9336 60.3759 22.5016V29.7327H58.8979V22.582C58.8979 21.7305 58.7775 21.1271 58.5368 20.7717C58.3016 20.4097 57.9461 20.2287 57.4702 20.2287C57.1007 20.2287 56.7676 20.3762 56.4708 20.6712C56.1797 20.9662 55.9445 21.3517 55.7654 21.8277V29.7327H54.2789V18.8508H55.6814Z" fill="#0066F5"/>
<path d="M62.3159 23.7989C62.3159 22.1026 62.5734 20.822 63.0885 19.9571C63.6036 19.0855 64.3566 18.6497 65.3476 18.6497C66.2714 18.6497 66.9741 19.1224 67.4555 20.0677L67.5311 18.8508H68.8748V29.8332C68.8748 31.1809 68.5865 32.2134 68.0098 32.9308C67.4332 33.655 66.6297 34.017 65.5996 34.017C65.1517 34.017 64.6478 33.8829 64.0879 33.6147C63.5336 33.3532 63.1165 33.0281 62.8366 32.6392L63.4412 31.4122C64.0571 32.1363 64.7374 32.4984 65.482 32.4984C66.7193 32.4984 67.3548 31.6905 67.3884 30.0746V28.6565C66.9069 29.5081 66.2238 29.9338 65.3392 29.9338C64.3986 29.9338 63.6652 29.5114 63.1389 28.6666C62.6126 27.8151 62.3383 26.5948 62.3159 25.0058V23.7989ZM63.8024 24.8147C63.8024 26.035 63.9507 26.9334 64.2475 27.51C64.5498 28.0799 65.0425 28.3649 65.7255 28.3649C66.4646 28.3649 67.0188 27.9123 67.3884 27.0072V21.5663C67.002 20.6745 66.4534 20.2287 65.7423 20.2287C65.0593 20.2287 64.5666 20.517 64.2643 21.0936C63.9619 21.6635 63.808 22.5418 63.8024 23.7285V24.8147Z" fill="#0066F5"/>
<path d="M70.7812 23.7889C70.7812 22.2066 71.1003 20.9561 71.7386 20.0376C72.3824 19.1123 73.2306 18.6497 74.2832 18.6497C75.3358 18.6497 76.1812 19.0989 76.8194 19.9973C77.4633 20.8958 77.7936 22.1194 77.8104 23.6682V24.8147C77.8104 26.3903 77.4913 27.6374 76.853 28.556C76.2148 29.4745 75.3638 29.9338 74.3 29.9338C73.2474 29.9338 72.402 29.4879 71.7638 28.5962C71.1311 27.7045 70.8036 26.4976 70.7812 24.9756V23.7889ZM72.2677 24.8147C72.2677 25.9344 72.4496 26.8161 72.8135 27.4598C73.1831 28.0967 73.6785 28.4152 74.3 28.4152C75.6101 28.4152 76.2848 27.2821 76.3239 25.0159V23.7889C76.3239 22.6759 76.1392 21.7976 75.7697 21.1539C75.4002 20.5035 74.9047 20.1784 74.2832 20.1784C73.6729 20.1784 73.1831 20.5035 72.8135 21.1539C72.4496 21.7976 72.2677 22.6725 72.2677 23.7788V24.8147Z" fill="#0066F5"/>
<path d="M82.2698 25.1164L82.4294 26.7558L82.6729 25.3075L84.6297 15.0894H85.9146L87.8126 25.3075L88.0561 26.796L88.2325 25.1064L89.7273 15.0894H91.2642L88.8287 29.7327H87.443L85.4023 19.062L85.2763 18.1971L85.1504 19.062L83.034 29.7327H81.6399L79.2129 15.0894H80.7497L82.2698 25.1164Z" fill="#0066F5"/>
<path d="M95.8076 29.9338C94.6766 29.9338 93.8088 29.5315 93.2041 28.7269C92.5995 27.9157 92.2915 26.7289 92.2803 25.1667V23.8492C92.2803 22.2267 92.5743 20.9561 93.1621 20.0376C93.7556 19.1123 94.5814 18.6497 95.6396 18.6497C96.7034 18.6497 97.4984 19.0553 98.0247 19.8666C98.5509 20.6779 98.8197 21.9417 98.8309 23.6581V24.8248H93.7584V25.0762C93.7584 26.2428 93.9404 27.091 94.3043 27.6207C94.6738 28.1503 95.2029 28.4152 95.8915 28.4152C96.3282 28.4152 96.7118 28.318 97.0421 28.1235C97.378 27.9224 97.6915 27.6073 97.9827 27.1782L98.7553 28.3046C98.1114 29.3907 97.1289 29.9338 95.8076 29.9338ZM95.6396 20.1784C95.0237 20.1784 94.5674 20.4331 94.2707 20.9427C93.974 21.4456 93.806 22.23 93.7668 23.2961H97.3444V23.0547C97.3052 22.0222 97.1485 21.2847 96.8741 20.8421C96.6054 20.3996 96.1939 20.1784 95.6396 20.1784Z" fill="#0066F5"/>
<path d="M105.297 29.7327C105.208 29.498 105.143 29.1024 105.104 28.5459C104.578 29.4712 103.906 29.9338 103.089 29.9338C102.266 29.9338 101.622 29.6589 101.157 29.1091C100.698 28.5526 100.469 27.7715 100.469 26.7658C100.469 25.6595 100.782 24.7812 101.409 24.1308C102.036 23.4805 102.896 23.1486 103.987 23.1352H105.079V21.9786C105.079 21.3282 104.959 20.8656 104.718 20.5907C104.477 20.3158 104.11 20.1784 103.618 20.1784C103.17 20.1784 102.806 20.3393 102.526 20.6611C102.246 20.9762 102.106 21.3785 102.106 21.868H100.62C100.62 21.3115 100.757 20.7818 101.031 20.2789C101.306 19.7694 101.675 19.3704 102.14 19.0821C102.604 18.7938 103.122 18.6497 103.693 18.6497C104.623 18.6497 105.328 18.9279 105.81 19.4844C106.297 20.0342 106.546 20.8388 106.557 21.8981V27.3894C106.563 28.2274 106.658 28.9549 106.843 29.5718V29.7327H105.297ZM103.315 28.3146C103.679 28.3146 104.027 28.1939 104.357 27.9526C104.687 27.7112 104.928 27.4095 105.079 27.0474V24.4527H104.239C103.534 24.4661 102.977 24.6572 102.568 25.0259C102.159 25.388 101.955 25.8975 101.955 26.5546C101.955 27.1714 102.059 27.6207 102.266 27.9023C102.473 28.1772 102.823 28.3146 103.315 28.3146Z" fill="#0066F5"/>
<path d="M110.471 29.7327H108.984V14.2849H110.471V29.7327Z" fill="#0066F5"/>
<path d="M114.762 16.2158V18.8508H116.131V20.289H114.762V27.0373C114.762 27.4665 114.821 27.7916 114.938 28.0129C115.056 28.2341 115.258 28.3448 115.543 28.3448C115.739 28.3448 115.938 28.3046 116.139 28.2241L116.123 29.7327C115.787 29.8668 115.442 29.9338 115.09 29.9338C114.502 29.9338 114.054 29.6824 113.746 29.1795C113.438 28.6767 113.284 27.966 113.284 27.0474V20.289H111.898V18.8508H113.284V16.2158H114.762Z" fill="#0066F5"/>
<path d="M119.389 19.9672C119.955 19.0888 120.677 18.6497 121.556 18.6497C123.163 18.6497 123.978 19.9336 124 22.5016V29.7327H122.522V22.582C122.522 21.7305 122.402 21.1271 122.161 20.7717C121.926 20.4097 121.57 20.2287 121.094 20.2287C120.725 20.2287 120.392 20.3762 120.095 20.6712C119.804 20.9662 119.569 21.3517 119.389 21.8277V29.7327H117.903V14.2849H119.389V19.9672Z" fill="#0066F5"/>
<path d="M38.2345 32.5811L38.2953 32.2552L25.9887 29.2886C26.2161 29.0208 26.4403 28.7459 26.6553 28.4524C28.0472 26.5527 29.0505 24.6232 29.7233 22.554C30.0961 21.4066 30.2882 20.2338 30.3302 19.0253C30.4204 18.8403 30.4965 18.6536 30.5548 18.4645C31.3107 16.0123 30.8759 13.4429 30.6443 12.4177C31.277 10.7977 31.5725 8.98537 31.027 7.32887C31.2274 7.28114 31.4291 7.23561 31.647 7.21887C31.6537 7.21837 31.659 7.21396 31.6659 7.21273C32.0351 7.28705 32.392 7.2686 32.6939 7.06269C33.0466 6.82275 32.7821 6.13649 32.4279 6.37741C32.2596 6.49249 32.0513 6.51483 31.8254 6.47908C31.815 6.47397 31.8006 6.47375 31.7891 6.46987C31.2381 6.36729 30.5936 5.92932 30.1632 5.59771L30.1596 5.58721C30.1075 5.44029 28.8599 1.97664 25.9913 0.427259C23.2628 -1.03152 17.0032 1.70361 16.7373 1.82106L15.9585 2.16651L16.7639 2.34777C16.8235 2.36086 22.7289 3.7071 24.9313 5.69015C25.2782 6.00213 25.6415 6.22324 26.0071 6.37401C27.4826 6.98244 28.9996 6.44862 29.6808 6.13508C29.9154 6.32198 30.1965 6.52809 30.5048 6.71755C29.1582 7.18879 28.1585 8.24749 27.2822 9.62026C25.3252 6.97913 22.7824 5.40672 20.0618 5.20561C17.2698 4.99804 14.4846 6.24204 12.2197 8.70912C11.1923 9.82769 10.2162 11.0544 9.27232 12.2402C8.86891 12.7462 8.4669 13.2519 8.05944 13.7513C6.24032 15.9783 4.30717 17.1587 2.14855 17.3591C1.51693 17.4176 1.06318 17.6765 0.799898 18.1288C0.527638 18.5962 0.47643 19.24 0.648342 20.0439C1.3112 23.1369 2.40398 25.611 3.70617 27.8731C4.65897 29.5286 7.00089 31.593 7.47493 31.9426C8.13409 32.4284 8.90317 32.8554 9.75416 33.2063C10.7325 33.6097 11.8236 33.8989 12.9711 34.072C14.6089 36.5135 17.0997 38.4982 20.036 39.709C20.8504 40.0448 21.699 40.3217 22.5724 40.5326C30.0474 42.3343 37.0733 38.7672 38.2345 32.5811ZM25.805 0.928461C27.8286 2.02118 29.0199 4.18011 29.5003 5.22107C29.0146 4.77893 28.2099 4.37739 27.2416 4.01912L27.2385 4.01619L27.2373 4.01815C26.7998 3.85578 26.3298 3.703 25.8397 3.55831L25.8285 3.54709L25.8238 3.55418C22.7743 2.65912 18.9858 2.10871 17.8255 1.95249C19.6907 1.24004 23.8389 -0.125772 25.805 0.928461ZM20.3855 2.82033C19.7745 2.61187 19.1932 2.43363 18.6819 2.28678C19.1948 2.36379 19.8371 2.46547 20.5597 2.59291L20.3855 2.82033ZM21.4602 3.20772C21.1632 3.09346 20.8686 2.98677 20.5772 2.88544L20.7719 2.63039C21.0794 2.68504 21.3975 2.74407 21.7257 2.80724L21.4602 3.20772ZM22.0084 3.42557C21.8857 3.37499 21.7622 3.32734 21.6383 3.27872L21.9256 2.8462C22.2646 2.91301 22.6098 2.98323 22.9596 3.05857L22.4943 3.63987C22.3322 3.56811 22.1729 3.49342 22.0084 3.42557ZM22.6758 3.71965L23.1696 3.10338C23.5359 3.18308 23.9049 3.26718 24.271 3.35665L23.6526 4.20197C23.3409 4.03328 23.0137 3.87291 22.6758 3.71965ZM23.8213 4.29203L24.4699 3.40587C24.8873 3.50991 25.2992 3.61908 25.6989 3.7339L24.8438 4.96866C24.5369 4.73304 24.2007 4.50505 23.8213 4.29203ZM25.1978 5.24497C25.1372 5.18964 25.0587 5.13923 24.9935 5.0861L25.8911 3.79022C26.3192 3.9167 26.7292 4.05054 27.1147 4.1898L25.9775 5.76573C25.7109 5.63774 25.4487 5.4714 25.1978 5.24497ZM26.1525 5.84772L27.3006 4.25663C27.7102 4.41074 28.0841 4.57151 28.415 4.73993L27.532 6.09269C27.0866 6.10006 26.6155 6.03617 26.1525 5.84772ZM27.7626 6.08203L28.5818 4.82755C29.0256 5.06879 29.3746 5.32338 29.5913 5.59065C29.2332 5.75783 28.5544 6.02399 27.7626 6.08203ZM33.1313 31.682C33.7691 32.2353 34.2908 32.9538 34.5286 33.898C32.9287 33.6417 31.3305 33.3729 29.7342 33.0902C29.3513 32.1346 28.8722 31.2475 28.2912 30.5151L33.1313 31.682ZM30.4256 36.0359C28.4733 35.6654 26.5135 35.3878 24.544 35.1988C24.3384 34.4319 24.0746 33.686 23.8115 32.979C23.7071 32.6974 23.5949 32.4133 23.483 32.1302C25.5237 32.5371 27.5669 32.9263 29.6142 33.29C29.9646 34.1863 30.2343 35.1297 30.4256 36.0359ZM27.9789 30.4404C28.6024 31.1534 29.1158 32.0637 29.5229 33.0523C27.4753 32.6876 25.4309 32.298 23.3897 31.8901C22.9693 30.8517 22.4756 29.843 21.8735 28.9683L27.9789 30.4404ZM23.1646 31.8448C21.5623 31.5235 19.9627 31.1886 18.3642 30.8402C17.9682 29.7168 17.4384 28.6825 16.7903 27.743L21.5971 28.9019C22.2308 29.7699 22.7311 30.7945 23.1646 31.8448ZM30.1401 18.2779C29.4889 20.3937 26.2983 22.3502 24.8883 23.1266C24.8943 23.1151 24.9014 23.1017 24.9076 23.0895C25.8213 21.7469 29.7174 15.8939 30.2872 12.937C30.5035 14.0659 30.7686 16.2389 30.1401 18.2779ZM29.3567 15.095C29.1966 15.4521 29.0215 15.8202 28.8322 16.1963L27.7172 15.9309C27.7317 15.8393 27.7479 15.746 27.759 15.6571C27.7963 15.3437 27.8658 15.0607 27.9543 14.7988L29.3567 15.095ZM28.027 14.5918C28.2046 14.151 28.4453 13.7886 28.7043 13.4912L29.8639 13.8218C29.7496 14.1575 29.6103 14.5158 29.4469 14.8912L28.027 14.5918ZM27.0018 18.49C27.123 18.1603 27.235 17.8327 27.3351 17.5099L28.0518 17.6603C27.8826 17.9644 27.7104 18.2673 27.5361 18.566L27.0018 18.49ZM27.418 18.7657C27.2506 19.0517 27.083 19.3319 26.9175 19.6047L26.5984 19.5215C26.7113 19.2483 26.8216 18.9724 26.9262 18.6958L27.418 18.7657ZM27.398 17.3005C27.5152 16.902 27.6136 16.5138 27.6822 16.1468L28.7294 16.3958C28.5488 16.7485 28.3586 17.1047 28.1626 17.4608L27.398 17.3005ZM26.7995 19.7996C26.625 20.0851 26.4543 20.3599 26.2892 20.6222L26.1306 20.6003C26.2599 20.3158 26.3887 20.0237 26.5146 19.7256L26.7995 19.7996ZM26.1617 20.8247C25.9823 21.109 25.8118 21.374 25.6529 21.6192C25.7775 21.3624 25.9068 21.0893 26.0367 20.8075L26.1617 20.8247ZM30.177 12.4095C30.1627 12.7504 30.0783 13.1567 29.9339 13.6153L28.8688 13.3114C29.3647 12.805 29.8953 12.522 30.1741 12.3968C30.175 12.4004 30.1761 12.4058 30.177 12.4095ZM30.417 7.53239C30.9093 8.9333 30.6827 10.428 30.1891 11.8167C29.9998 11.8879 29.4917 12.1064 28.9483 12.553C28.5067 11.6043 28.0371 10.7277 27.6926 10.1937C28.4386 8.99184 29.2878 8.01131 30.417 7.53239ZM26.8925 10.2508C26.7553 10.4869 26.6193 10.726 26.4851 10.9748C26.2615 11.3901 26.7702 11.8164 26.9938 11.4011C27.0955 11.2126 27.1993 11.0307 27.3026 10.8479C27.6263 11.3765 28.0431 12.1682 28.4341 13.0133C28.4348 13.0267 28.4327 13.0365 28.4336 13.0492C28.2874 13.2135 28.1478 13.3986 28.0173 13.6023C27.5107 13.591 26.6989 13.0258 25.9548 12.1492C24.849 10.847 24.404 9.52225 24.682 9.10147C24.7409 9.01345 24.8319 8.96323 24.9532 8.95179C25.0869 8.93885 25.2467 8.97276 25.4242 9.04596C25.791 9.19722 26.2325 9.52027 26.6732 9.96029C26.7466 10.0561 26.8208 10.1515 26.8925 10.2508ZM7.80468 31.2775C7.34648 30.9394 5.16469 29.105 4.20015 27.3848C2.96906 25.1898 1.89463 22.8216 1.25395 19.8304C1.13142 19.2609 1.14872 18.8359 1.30463 18.5689C1.45098 18.3169 1.74619 18.1689 2.1801 18.1281C4.49658 17.9133 6.5621 16.6578 8.49372 14.292C8.90299 13.7908 9.30783 13.2822 9.71246 12.7742C10.6483 11.5982 11.6166 10.3823 12.6269 9.28205C14.7638 6.95489 17.3858 5.78053 20.0086 5.9757C22.1815 6.13869 24.2335 7.23576 25.9375 9.08462C25.5579 8.8379 25.2111 8.70883 24.9442 8.73323C24.7709 8.74868 24.6369 8.82706 24.5457 8.96496C24.1635 9.54196 24.7281 11.0104 25.8299 12.3084C26.4212 13.0048 27.0459 13.5075 27.556 13.7179C27.6739 13.7665 27.7833 13.7944 27.8876 13.8103C27.6147 14.2939 27.4027 14.8796 27.3185 15.5902C26.9759 18.4908 24.141 23.5301 24.1126 23.5807L23.6983 24.3126L24.37 23.9886C24.5431 23.905 27.858 22.285 29.6171 20.1153C29.5224 20.8486 29.3722 21.5705 29.1418 22.2798C28.4983 24.261 27.5337 26.1131 26.1945 27.9419C25.8883 28.36 25.5643 28.7413 25.2324 29.1062L11.1727 25.7168L11.1132 26.0341C10.6934 28.274 11.0781 30.6251 12.2268 32.8337C12.2927 32.9601 12.3736 33.0803 12.4441 33.2045C10.6441 32.846 9.02234 32.1748 7.80468 31.2775ZM22.6848 39.887C18.2821 38.8275 14.5401 36.053 12.6771 32.47C11.6609 30.5162 11.2838 28.4552 11.5789 26.4861L13.0144 26.8321C13.1267 30.0801 15.2647 33.0467 17.056 35.1079C18.9009 37.2305 21.099 39.0519 23.5216 40.0533C23.2429 40.0015 22.9648 39.9549 22.6848 39.887ZM24.6491 40.2247C21.8336 39.3786 19.2817 37.3654 17.1918 34.9638C15.4336 32.9434 13.3197 30.049 13.1919 26.8757L16.5089 27.6753C17.1857 28.616 17.7356 29.6586 18.15 30.7937C17.3749 30.6241 16.5982 30.4621 15.8235 30.2861C15.7121 30.2607 15.7 30.4795 15.8102 30.5045C16.6202 30.6884 17.4322 30.8584 18.2428 31.0353C18.4445 31.6211 18.6211 32.2227 18.7483 32.854C18.7754 32.989 18.9504 32.9448 18.9229 32.8088C18.8022 32.2121 18.6423 31.6395 18.457 31.0818C20.0563 31.4297 21.6573 31.7644 23.261 32.0854C23.3489 32.3028 23.4385 32.521 23.5227 32.7377C23.8209 33.5109 24.1243 34.3321 24.3561 35.1779C23.6417 35.1112 22.9259 35.0563 22.2086 35.0139C22.095 35.0072 22.0809 35.2261 22.1953 35.2322C22.9366 35.2763 23.6758 35.3344 24.4137 35.4042C24.5973 36.1194 24.7267 36.8508 24.7473 37.5866C24.7509 37.7258 24.9284 37.7391 24.9242 37.598C24.9035 36.8647 24.7778 36.1364 24.5987 35.4239C26.5952 35.6174 28.5815 35.8995 30.5607 36.2794C30.6501 36.2966 30.6728 36.1649 30.6233 36.0986C30.4351 35.1814 30.1689 34.2329 29.8244 33.3274C31.6906 33.6575 33.5587 33.9744 35.4295 34.2679C35.5425 34.2857 35.5552 34.0671 35.4428 34.0495C35.2029 34.0121 34.9635 33.9683 34.7238 33.9301C34.5187 33.042 34.0812 32.3385 33.5263 31.7768L37.6478 32.7704C36.4883 37.8791 30.9341 40.9576 24.6491 40.2247Z" fill="#0066F5"/>
</g>
</svg>
