<svg width="467" height="458" viewBox="0 0 467 458" fill="none" xmlns="http://www.w3.org/2000/svg">
<path d="M342.636 25.4195C288.414 25.4195 244.191 68.7152 244.191 121.967C244.191 175.219 288.338 218.516 342.636 218.516C396.858 218.516 441.081 175.22 441.081 121.968C441.081 68.7164 396.858 25.4195 342.636 25.4195Z" fill="#FFC10D"/>
<path d="M128.672 149.498C105.907 149.498 87.2937 167.677 87.2937 190.079C87.2937 212.405 105.829 230.66 128.672 230.66C151.514 230.66 170.05 212.481 170.05 190.079C170.05 167.677 151.514 149.498 128.672 149.498Z" fill="white"/>
<path d="M128.672 124.079C91.5243 124.079 61.3747 153.646 61.3747 190.079C61.3747 226.512 91.5231 256.079 128.672 256.079C165.82 256.079 195.969 226.512 195.969 190.079C195.969 153.646 165.819 124.079 128.672 124.079ZM128.672 230.66C105.907 230.66 87.2937 212.481 87.2937 190.079C87.2937 167.753 105.829 149.498 128.672 149.498C151.514 149.498 170.05 167.677 170.05 190.079C170.049 212.405 151.514 230.66 128.672 230.66Z" fill="#194F82"/>
<path d="M231.501 351.873C231.501 339.503 223.887 328.491 212.581 324.342C202.044 320.495 190.969 317.402 179.817 315.064L140.362 392.528C135.594 401.881 121.904 401.881 117.135 392.528L77.6797 315.064C66.5273 317.402 55.5297 320.57 44.9163 324.342C34.6098 328.038 27.4573 337.542 26.1498 348.403H70.0655C77.2181 348.403 83.0631 354.06 83.0631 361.15C83.0631 368.165 77.2954 373.897 70.0655 373.897H25.919V386.947H45.6075C52.76 386.947 58.6051 392.603 58.6051 399.694C58.6051 406.708 52.8374 412.441 45.6075 412.441H25.919V432.429H231.501V351.873Z" fill="#56ACE0"/>
<path d="M221.425 300.581C206.35 295.15 190.66 291.002 174.741 288.211C169.127 287.231 163.435 290.022 160.974 295.075L128.825 358.359L96.5996 295.075C94.062 290.022 88.4465 287.231 82.8323 288.211C66.9116 290.926 51.2217 295.075 36.1481 300.581C14.4597 308.351 0 329.018 0 351.873V445.253C0 452.268 5.76771 458 12.9976 458H244.498C251.651 458 257.496 452.343 257.496 445.253V351.873C257.42 329.018 242.96 308.351 221.425 300.581ZM25.919 412.442H45.6075C52.76 412.442 58.6051 406.785 58.6051 399.695C58.6051 392.68 52.8374 386.948 45.6075 386.948H25.919V373.898H70.1429C77.2954 373.898 83.1404 368.242 83.1404 361.151C83.1404 354.137 77.3727 348.404 70.1429 348.404H26.2259C27.5334 337.467 34.686 328.038 44.9924 324.343C55.5297 320.496 66.6047 317.404 77.7558 315.065L117.211 392.53C121.98 401.882 135.67 401.882 140.438 392.53L179.894 315.065C191.046 317.403 202.044 320.571 212.657 324.343C224.04 328.492 231.577 339.504 231.577 351.874V432.507H25.919V412.442Z" fill="#194F82"/>
<path d="M342.636 162.548C335.484 162.548 329.639 168.204 329.639 175.295V180.424C329.639 187.439 335.407 193.171 342.636 193.171C349.865 193.171 355.634 187.515 355.634 180.424V175.295C355.558 168.205 349.789 162.548 342.636 162.548Z" fill="#194F82"/>
<path d="M342.636 0C274.032 0 218.272 54.7605 218.272 121.967C218.272 189.174 274.109 243.935 342.636 243.935C411.163 243.935 467 189.175 467 121.968C467 54.7617 411.241 0 342.636 0ZM342.636 218.516C288.414 218.516 244.191 175.22 244.191 121.968C244.191 68.7164 288.338 25.4195 342.636 25.4195C396.858 25.4195 441.081 68.7152 441.081 121.967C441.081 175.219 396.858 218.516 342.636 218.516Z" fill="#194F82"/>
<path d="M352.25 51.8191C310.18 45.7845 297.182 79.6526 297.182 95.3412C297.182 102.356 302.95 108.088 310.18 108.088C317.41 108.088 322.947 102.432 323.177 95.3412C323.562 84.8565 334.483 72.4104 347.019 76.71C354.018 79.1241 360.171 84.0269 361.708 91.1163C363.939 101.601 357.939 109.445 350.94 112.689C338.096 118.648 329.714 131.471 329.714 145.123C329.714 152.138 335.481 157.87 342.711 157.87C349.941 157.87 355.709 152.214 355.709 145.123C355.709 141.05 358.17 137.429 362.015 135.62C381.166 126.794 391.473 106.353 387.088 85.8366C383.475 69.168 367.094 54.0068 352.25 51.8191Z" fill="#194F82"/>
</svg>
