<svg width="424" height="474" viewBox="0 0 424 474" fill="none" xmlns="http://www.w3.org/2000/svg">
<path d="M225.165 84.3524H28.5903V256.707C28.5903 365.612 132.932 450.702 198.832 474H225.164L225.165 84.3524Z" fill="#E0B03B"/>
<path d="M225.164 0H28.5903V84.3524H225.164V0Z" fill="#FFC843"/>
<path d="M395.407 84.3524V256.707C395.407 365.612 291.065 450.702 225.165 474C159.264 450.702 54.9221 365.61 54.9221 256.707V84.3524H395.407Z" fill="#FFC843"/>
<path d="M395.408 0H54.9221V84.3524H395.408V0Z" fill="#FFE09B"/>
<path d="M301.883 205.403H276.264C276.264 173.904 253.341 148.277 225.165 148.277C196.989 148.277 174.065 173.904 174.065 205.403H148.446C148.446 158.112 182.862 119.638 225.165 119.638C267.467 119.638 301.883 158.112 301.883 205.403Z" fill="#333E48"/>
<path d="M316.756 205.403H133.572V351.216H316.756V205.403Z" fill="#5C6670"/>
<path d="M225.165 234.155C212.195 234.155 201.681 245.911 201.681 260.409C201.681 269.789 206.093 277.995 212.711 282.639V313.314H237.618V282.639C244.236 277.995 248.648 269.789 248.648 260.409C248.648 245.911 238.136 234.155 225.165 234.155Z" fill="#333E48"/>
</svg>
